# MagicaVoxel @ Ephtracy

# group
o 

# material
mtllib Hollow.mtl
usemtl palette

# normals
vn -1 0 0
vn 1 0 0
vn 0 0 1
vn 0 0 -1
vn 0 -1 0
vn 0 1 0

# texcoords
vt 0.181641 0.5
vt 0.185547 0.5
vt 0.548828 0.5

# verts
v -5.7 0 5.7
v -5.7 0 -5.8
v -5.7 0.2 5.4
v -5.7 0.2 -5.5
v -5.7 0.5 5.1
v -5.7 0.5 -5.2
v -5.7 0.8 4.8
v -5.7 0.8 -4.9
v -5.7 1.1 4.5
v -5.7 1.1 -4.6
v -5.7 1.4 4.2
v -5.7 1.4 -4.3
v -5.7 1.7 3.9
v -5.7 1.7 -4
v -5.7 2 3.6
v -5.7 2 -3.7
v -5.7 2.3 3.3
v -5.7 2.3 -3.4
v -5.7 2.6 3
v -5.7 2.6 -3.1
v -5.7 2.9 2.7
v -5.7 2.9 -2.8
v -5.7 3.2 2.4
v -5.7 3.2 -2.5
v -5.7 3.5 2.1
v -5.7 3.5 -2.2
v -5.7 3.8 1.8
v -5.7 3.8 -1.9
v -5.7 4.1 1.5
v -5.7 4.1 -1.6
v -5.7 4.4 1.2
v -5.7 4.4 -1.3
v -5.7 4.7 0.9
v -5.7 4.7 -1
v -5.7 5 0.6
v -5.7 5 -0.7
v -5.7 5.3 0.3
v -5.7 5.3 -0.4
v -5.7 5.5 0.0999999
v -5.7 5.5 -0.2
v -5.7 5.6 0
v -5.7 5.6 -0.0999999
v -5.7 5.8 0
v -5.7 5.8 -0.0999999
v -5.7 5.9 0.0999999
v -5.7 5.9 -0.2
v -5.7 6.1 0.3
v -5.7 6.1 -0.4
v -5.7 6.4 0.6
v -5.7 6.4 -0.7
v -5.7 6.7 0.9
v -5.7 6.7 -1
v -5.7 7 1.2
v -5.7 7 -1.3
v -5.7 7.3 1.5
v -5.7 7.3 -1.6
v -5.7 7.6 1.8
v -5.7 7.6 -1.9
v -5.7 7.9 2.1
v -5.7 7.9 -2.2
v -5.7 8.2 2.4
v -5.7 8.2 -2.5
v -5.7 8.5 2.7
v -5.7 8.5 -2.8
v -5.7 8.8 3
v -5.7 8.8 -3.1
v -5.7 9.1 3.3
v -5.7 9.1 -3.4
v -5.7 9.4 3.6
v -5.7 9.4 -3.7
v -5.7 9.7 3.9
v -5.7 9.7 -4
v -5.7 10 4.2
v -5.7 10 -4.3
v -5.7 10.3 4.5
v -5.7 10.3 -4.6
v -5.7 10.6 4.8
v -5.7 10.6 -4.9
v -5.7 10.9 5.1
v -5.7 10.9 -5.2
v -5.7 11.2 5.4
v -5.7 11.2 -5.5
v -5.7 11.5 5.7
v -5.7 11.5 -5.8
v 5.6 0.2 5.7
v 5.6 0.2 -5.8
v 5.6 11.3 5.7
v 5.6 11.3 -5.8
v -5.5 0.2 5.7
v -5.5 0.2 -5.8
v -5.5 11.3 5.7
v -5.5 11.3 -5.8
v 5.8 0 5.7
v 5.8 0 -5.8
v 5.8 0.2 5.4
v 5.8 0.2 -5.5
v 5.8 0.5 5.1
v 5.8 0.5 -5.2
v 5.8 0.8 4.8
v 5.8 0.8 -4.9
v 5.8 1.1 4.5
v 5.8 1.1 -4.6
v 5.8 1.4 4.2
v 5.8 1.4 -4.3
v 5.8 1.7 3.9
v 5.8 1.7 -4
v 5.8 2 3.6
v 5.8 2 -3.7
v 5.8 2.3 3.3
v 5.8 2.3 -3.4
v 5.8 2.6 3
v 5.8 2.6 -3.1
v 5.8 2.9 2.7
v 5.8 2.9 -2.8
v 5.8 3.2 2.4
v 5.8 3.2 -2.5
v 5.8 3.5 2.1
v 5.8 3.5 -2.2
v 5.8 3.8 1.8
v 5.8 3.8 -1.9
v 5.8 4.1 1.5
v 5.8 4.1 -1.6
v 5.8 4.4 1.2
v 5.8 4.4 -1.3
v 5.8 4.7 0.9
v 5.8 4.7 -1
v 5.8 5 0.6
v 5.8 5 -0.7
v 5.8 5.3 0.3
v 5.8 5.3 -0.4
v 5.8 5.5 0.0999999
v 5.8 5.5 -0.2
v 5.8 5.6 0
v 5.8 5.6 -0.0999999
v 5.8 5.8 0
v 5.8 5.8 -0.0999999
v 5.8 5.9 0.0999999
v 5.8 5.9 -0.2
v 5.8 6.1 0.3
v 5.8 6.1 -0.4
v 5.8 6.4 0.6
v 5.8 6.4 -0.7
v 5.8 6.7 0.9
v 5.8 6.7 -1
v 5.8 7 1.2
v 5.8 7 -1.3
v 5.8 7.3 1.5
v 5.8 7.3 -1.6
v 5.8 7.6 1.8
v 5.8 7.6 -1.9
v 5.8 7.9 2.1
v 5.8 7.9 -2.2
v 5.8 8.2 2.4
v 5.8 8.2 -2.5
v 5.8 8.5 2.7
v 5.8 8.5 -2.8
v 5.8 8.8 3
v 5.8 8.8 -3.1
v 5.8 9.1 3.3
v 5.8 9.1 -3.4
v 5.8 9.4 3.6
v 5.8 9.4 -3.7
v 5.8 9.7 3.9
v 5.8 9.7 -4
v 5.8 10 4.2
v 5.8 10 -4.3
v 5.8 10.3 4.5
v 5.8 10.3 -4.6
v 5.8 10.6 4.8
v 5.8 10.6 -4.9
v 5.8 10.9 5.1
v 5.8 10.9 -5.2
v 5.8 11.2 5.4
v 5.8 11.2 -5.5
v 5.8 11.5 5.7
v 5.8 11.5 -5.8
v -5.7 0 5.7
v -5.7 11.5 5.7
v -5.6 0.1 5.7
v -5.6 11.4 5.7
v -5.5 0.2 5.7
v -5.5 11.3 5.7
v 5.6 0.2 5.7
v 5.6 11.3 5.7
v 5.7 0.1 5.7
v 5.7 11.4 5.7
v 5.8 0 5.7
v 5.8 11.5 5.7
v -5.7 0 -5.8
v -5.7 11.5 -5.8
v -5.6 0.1 -5.8
v -5.6 11.4 -5.8
v -5.5 0.2 -5.8
v -5.5 11.3 -5.8
v 5.6 0.2 -5.8
v 5.6 11.3 -5.8
v 5.7 0.1 -5.8
v 5.7 11.4 -5.8
v 5.8 0 -5.8
v 5.8 11.5 -5.8
v -5.7 0 5.7
v 5.8 0 5.7
v -5.7 0 -5.8
v 5.8 0 -5.8
v -5.5 11.3 5.7
v 5.6 11.3 5.7
v -5.5 11.3 -5.8
v 5.6 11.3 -5.8
v -5.5 0.2 5.7
v 5.6 0.2 5.7
v -5.5 0.2 -5.8
v 5.6 0.2 -5.8
v -5.7 11.5 5.7
v 5.8 11.5 5.7
v -4.6 11.5 4.8
v 4.7 11.5 4.8
v -4.6 11.5 4.4
v -0.2 11.5 4.4
v 0.3 11.5 4.4
v 4.7 11.5 4.4
v -4.6 11.5 2.4
v -0.2 11.5 2.4
v 0.3 11.5 2.4
v 4.7 11.5 2.4
v -4.6 11.5 2
v 4.7 11.5 2
v -4.6 11.5 1.3
v 4.7 11.5 1.3
v -4.6 11.5 0.9
v 4.7 11.5 0.9
v -4.6 11.5 0.2
v 4.7 11.5 0.2
v -4.2 11.5 -0.2
v 4.3 11.5 -0.2
v -4.6 11.5 -1.4
v -4.2 11.5 -1.4
v 4.3 11.5 -1.4
v 4.7 11.5 -1.4
v -4.2 11.5 -1.8
v 4.3 11.5 -1.8
v -4.6 11.5 -2.6
v 4.7 11.5 -2.6
v -4.2 11.5 -3
v -0.2 11.5 -3
v 0.3 11.5 -3
v 4.3 11.5 -3
v -4.6 11.5 -4.8
v -4.2 11.5 -4.8
v -0.2 11.5 -4.8
v 0.3 11.5 -4.8
v 4.3 11.5 -4.8
v 4.7 11.5 -4.8
v -5.7 11.5 -5.8
v 5.8 11.5 -5.8

# faces
f 3/1/1 2/1/1 1/1/1
f 4/1/1 2/1/1 3/1/1
f 5/3/1 4/3/1 3/3/1
f 6/3/1 4/3/1 5/3/1
f 7/1/1 6/1/1 5/1/1
f 8/1/1 6/1/1 7/1/1
f 9/3/1 8/3/1 7/3/1
f 10/3/1 8/3/1 9/3/1
f 11/1/1 10/1/1 9/1/1
f 12/1/1 10/1/1 11/1/1
f 13/3/1 12/3/1 11/3/1
f 14/3/1 12/3/1 13/3/1
f 15/1/1 14/1/1 13/1/1
f 16/1/1 14/1/1 15/1/1
f 17/3/1 16/3/1 15/3/1
f 18/3/1 16/3/1 17/3/1
f 19/1/1 18/1/1 17/1/1
f 20/1/1 18/1/1 19/1/1
f 21/3/1 20/3/1 19/3/1
f 22/3/1 20/3/1 21/3/1
f 23/1/1 22/1/1 21/1/1
f 24/1/1 22/1/1 23/1/1
f 25/3/1 24/3/1 23/3/1
f 26/3/1 24/3/1 25/3/1
f 27/1/1 26/1/1 25/1/1
f 28/1/1 26/1/1 27/1/1
f 29/3/1 28/3/1 27/3/1
f 30/3/1 28/3/1 29/3/1
f 31/1/1 30/1/1 29/1/1
f 32/1/1 30/1/1 31/1/1
f 33/3/1 32/3/1 31/3/1
f 34/3/1 32/3/1 33/3/1
f 35/1/1 34/1/1 33/1/1
f 36/1/1 34/1/1 35/1/1
f 37/3/1 36/3/1 35/3/1
f 38/3/1 36/3/1 37/3/1
f 39/1/1 38/1/1 37/1/1
f 40/1/1 38/1/1 39/1/1
f 41/3/1 40/3/1 39/3/1
f 42/3/1 40/3/1 41/3/1
f 43/3/1 41/3/1 39/3/1
f 43/1/1 42/1/1 41/1/1
f 44/3/1 40/3/1 42/3/1
f 44/1/1 42/1/1 43/1/1
f 45/1/1 39/1/1 37/1/1
f 45/3/1 43/3/1 39/3/1
f 45/3/1 44/3/1 43/3/1
f 46/3/1 40/3/1 44/3/1
f 46/3/1 44/3/1 45/3/1
f 46/1/1 38/1/1 40/1/1
f 47/3/1 37/3/1 35/3/1
f 47/1/1 45/1/1 37/1/1
f 47/1/1 46/1/1 45/1/1
f 48/1/1 38/1/1 46/1/1
f 48/1/1 46/1/1 47/1/1
f 48/3/1 36/3/1 38/3/1
f 49/1/1 35/1/1 33/1/1
f 49/3/1 47/3/1 35/3/1
f 49/3/1 48/3/1 47/3/1
f 50/3/1 36/3/1 48/3/1
f 50/3/1 48/3/1 49/3/1
f 50/1/1 34/1/1 36/1/1
f 51/3/1 33/3/1 31/3/1
f 51/1/1 49/1/1 33/1/1
f 51/1/1 50/1/1 49/1/1
f 52/1/1 34/1/1 50/1/1
f 52/1/1 50/1/1 51/1/1
f 52/3/1 32/3/1 34/3/1
f 53/1/1 31/1/1 29/1/1
f 53/3/1 51/3/1 31/3/1
f 53/3/1 52/3/1 51/3/1
f 54/3/1 32/3/1 52/3/1
f 54/3/1 52/3/1 53/3/1
f 54/1/1 30/1/1 32/1/1
f 55/3/1 29/3/1 27/3/1
f 55/1/1 53/1/1 29/1/1
f 55/1/1 54/1/1 53/1/1
f 56/1/1 30/1/1 54/1/1
f 56/1/1 54/1/1 55/1/1
f 56/3/1 28/3/1 30/3/1
f 57/1/1 27/1/1 25/1/1
f 57/3/1 55/3/1 27/3/1
f 57/3/1 56/3/1 55/3/1
f 58/3/1 28/3/1 56/3/1
f 58/3/1 56/3/1 57/3/1
f 58/1/1 26/1/1 28/1/1
f 59/3/1 25/3/1 23/3/1
f 59/1/1 57/1/1 25/1/1
f 59/1/1 58/1/1 57/1/1
f 60/1/1 26/1/1 58/1/1
f 60/1/1 58/1/1 59/1/1
f 60/3/1 24/3/1 26/3/1
f 61/1/1 23/1/1 21/1/1
f 61/3/1 59/3/1 23/3/1
f 61/3/1 60/3/1 59/3/1
f 62/3/1 24/3/1 60/3/1
f 62/3/1 60/3/1 61/3/1
f 62/1/1 22/1/1 24/1/1
f 63/3/1 21/3/1 19/3/1
f 63/1/1 61/1/1 21/1/1
f 63/1/1 62/1/1 61/1/1
f 64/1/1 22/1/1 62/1/1
f 64/1/1 62/1/1 63/1/1
f 64/3/1 20/3/1 22/3/1
f 65/1/1 19/1/1 17/1/1
f 65/3/1 63/3/1 19/3/1
f 65/3/1 64/3/1 63/3/1
f 66/3/1 20/3/1 64/3/1
f 66/3/1 64/3/1 65/3/1
f 66/1/1 18/1/1 20/1/1
f 67/3/1 17/3/1 15/3/1
f 67/1/1 65/1/1 17/1/1
f 67/1/1 66/1/1 65/1/1
f 68/1/1 18/1/1 66/1/1
f 68/1/1 66/1/1 67/1/1
f 68/3/1 16/3/1 18/3/1
f 69/1/1 15/1/1 13/1/1
f 69/3/1 67/3/1 15/3/1
f 69/3/1 68/3/1 67/3/1
f 70/3/1 16/3/1 68/3/1
f 70/3/1 68/3/1 69/3/1
f 70/1/1 14/1/1 16/1/1
f 71/3/1 13/3/1 11/3/1
f 71/1/1 69/1/1 13/1/1
f 71/1/1 70/1/1 69/1/1
f 72/1/1 14/1/1 70/1/1
f 72/1/1 70/1/1 71/1/1
f 72/3/1 12/3/1 14/3/1
f 73/1/1 11/1/1 9/1/1
f 73/3/1 71/3/1 11/3/1
f 73/3/1 72/3/1 71/3/1
f 74/3/1 12/3/1 72/3/1
f 74/3/1 72/3/1 73/3/1
f 74/1/1 10/1/1 12/1/1
f 75/3/1 9/3/1 7/3/1
f 75/1/1 73/1/1 9/1/1
f 75/1/1 74/1/1 73/1/1
f 76/1/1 10/1/1 74/1/1
f 76/1/1 74/1/1 75/1/1
f 76/3/1 8/3/1 10/3/1
f 77/1/1 7/1/1 5/1/1
f 77/3/1 75/3/1 7/3/1
f 77/3/1 76/3/1 75/3/1
f 78/3/1 8/3/1 76/3/1
f 78/3/1 76/3/1 77/3/1
f 78/1/1 6/1/1 8/1/1
f 79/3/1 5/3/1 3/3/1
f 79/1/1 77/1/1 5/1/1
f 79/1/1 78/1/1 77/1/1
f 80/1/1 6/1/1 78/1/1
f 80/1/1 78/1/1 79/1/1
f 80/3/1 4/3/1 6/3/1
f 81/1/1 3/1/1 1/1/1
f 81/3/1 79/3/1 3/3/1
f 81/3/1 80/3/1 79/3/1
f 82/3/1 4/3/1 80/3/1
f 82/3/1 80/3/1 81/3/1
f 82/1/1 2/1/1 4/1/1
f 83/1/1 81/1/1 1/1/1
f 83/1/1 82/1/1 81/1/1
f 84/1/1 2/1/1 82/1/1
f 84/1/1 82/1/1 83/1/1
f 87/3/1 86/3/1 85/3/1
f 88/3/1 86/3/1 87/3/1
f 89/3/2 90/3/2 91/3/2
f 91/3/2 90/3/2 92/3/2
f 93/1/2 94/1/2 95/1/2
f 95/1/2 94/1/2 96/1/2
f 95/3/2 96/3/2 97/3/2
f 97/3/2 96/3/2 98/3/2
f 97/1/2 98/1/2 99/1/2
f 99/1/2 98/1/2 100/1/2
f 99/3/2 100/3/2 101/3/2
f 101/3/2 100/3/2 102/3/2
f 101/1/2 102/1/2 103/1/2
f 103/1/2 102/1/2 104/1/2
f 103/3/2 104/3/2 105/3/2
f 105/3/2 104/3/2 106/3/2
f 105/1/2 106/1/2 107/1/2
f 107/1/2 106/1/2 108/1/2
f 107/3/2 108/3/2 109/3/2
f 109/3/2 108/3/2 110/3/2
f 109/1/2 110/1/2 111/1/2
f 111/1/2 110/1/2 112/1/2
f 111/3/2 112/3/2 113/3/2
f 113/3/2 112/3/2 114/3/2
f 113/1/2 114/1/2 115/1/2
f 115/1/2 114/1/2 116/1/2
f 115/3/2 116/3/2 117/3/2
f 117/3/2 116/3/2 118/3/2
f 117/1/2 118/1/2 119/1/2
f 119/1/2 118/1/2 120/1/2
f 119/3/2 120/3/2 121/3/2
f 121/3/2 120/3/2 122/3/2
f 121/1/2 122/1/2 123/1/2
f 123/1/2 122/1/2 124/1/2
f 123/3/2 124/3/2 125/3/2
f 125/3/2 124/3/2 126/3/2
f 125/1/2 126/1/2 127/1/2
f 127/1/2 126/1/2 128/1/2
f 127/3/2 128/3/2 129/3/2
f 129/3/2 128/3/2 130/3/2
f 129/1/2 130/1/2 131/1/2
f 131/1/2 130/1/2 132/1/2
f 131/3/2 132/3/2 133/3/2
f 133/3/2 132/3/2 134/3/2
f 131/3/2 133/3/2 135/3/2
f 133/1/2 134/1/2 135/1/2
f 134/3/2 132/3/2 136/3/2
f 135/1/2 134/1/2 136/1/2
f 129/1/2 131/1/2 137/1/2
f 131/3/2 135/3/2 137/3/2
f 135/3/2 136/3/2 137/3/2
f 136/3/2 132/3/2 138/3/2
f 137/3/2 136/3/2 138/3/2
f 132/1/2 130/1/2 138/1/2
f 127/3/2 129/3/2 139/3/2
f 129/1/2 137/1/2 139/1/2
f 137/1/2 138/1/2 139/1/2
f 138/1/2 130/1/2 140/1/2
f 139/1/2 138/1/2 140/1/2
f 130/3/2 128/3/2 140/3/2
f 125/1/2 127/1/2 141/1/2
f 127/3/2 139/3/2 141/3/2
f 139/3/2 140/3/2 141/3/2
f 140/3/2 128/3/2 142/3/2
f 141/3/2 140/3/2 142/3/2
f 128/1/2 126/1/2 142/1/2
f 123/3/2 125/3/2 143/3/2
f 125/1/2 141/1/2 143/1/2
f 141/1/2 142/1/2 143/1/2
f 142/1/2 126/1/2 144/1/2
f 143/1/2 142/1/2 144/1/2
f 126/3/2 124/3/2 144/3/2
f 121/1/2 123/1/2 145/1/2
f 123/3/2 143/3/2 145/3/2
f 143/3/2 144/3/2 145/3/2
f 144/3/2 124/3/2 146/3/2
f 145/3/2 144/3/2 146/3/2
f 124/1/2 122/1/2 146/1/2
f 119/3/2 121/3/2 147/3/2
f 121/1/2 145/1/2 147/1/2
f 145/1/2 146/1/2 147/1/2
f 146/1/2 122/1/2 148/1/2
f 147/1/2 146/1/2 148/1/2
f 122/3/2 120/3/2 148/3/2
f 117/1/2 119/1/2 149/1/2
f 119/3/2 147/3/2 149/3/2
f 147/3/2 148/3/2 149/3/2
f 148/3/2 120/3/2 150/3/2
f 149/3/2 148/3/2 150/3/2
f 120/1/2 118/1/2 150/1/2
f 115/3/2 117/3/2 151/3/2
f 117/1/2 149/1/2 151/1/2
f 149/1/2 150/1/2 151/1/2
f 150/1/2 118/1/2 152/1/2
f 151/1/2 150/1/2 152/1/2
f 118/3/2 116/3/2 152/3/2
f 113/1/2 115/1/2 153/1/2
f 115/3/2 151/3/2 153/3/2
f 151/3/2 152/3/2 153/3/2
f 152/3/2 116/3/2 154/3/2
f 153/3/2 152/3/2 154/3/2
f 116/1/2 114/1/2 154/1/2
f 111/3/2 113/3/2 155/3/2
f 113/1/2 153/1/2 155/1/2
f 153/1/2 154/1/2 155/1/2
f 154/1/2 114/1/2 156/1/2
f 155/1/2 154/1/2 156/1/2
f 114/3/2 112/3/2 156/3/2
f 109/1/2 111/1/2 157/1/2
f 111/3/2 155/3/2 157/3/2
f 155/3/2 156/3/2 157/3/2
f 156/3/2 112/3/2 158/3/2
f 157/3/2 156/3/2 158/3/2
f 112/1/2 110/1/2 158/1/2
f 107/3/2 109/3/2 159/3/2
f 109/1/2 157/1/2 159/1/2
f 157/1/2 158/1/2 159/1/2
f 158/1/2 110/1/2 160/1/2
f 159/1/2 158/1/2 160/1/2
f 110/3/2 108/3/2 160/3/2
f 105/1/2 107/1/2 161/1/2
f 107/3/2 159/3/2 161/3/2
f 159/3/2 160/3/2 161/3/2
f 160/3/2 108/3/2 162/3/2
f 161/3/2 160/3/2 162/3/2
f 108/1/2 106/1/2 162/1/2
f 103/3/2 105/3/2 163/3/2
f 105/1/2 161/1/2 163/1/2
f 161/1/2 162/1/2 163/1/2
f 162/1/2 106/1/2 164/1/2
f 163/1/2 162/1/2 164/1/2
f 106/3/2 104/3/2 164/3/2
f 101/1/2 103/1/2 165/1/2
f 103/3/2 163/3/2 165/3/2
f 163/3/2 164/3/2 165/3/2
f 164/3/2 104/3/2 166/3/2
f 165/3/2 164/3/2 166/3/2
f 104/1/2 102/1/2 166/1/2
f 99/3/2 101/3/2 167/3/2
f 101/1/2 165/1/2 167/1/2
f 165/1/2 166/1/2 167/1/2
f 166/1/2 102/1/2 168/1/2
f 167/1/2 166/1/2 168/1/2
f 102/3/2 100/3/2 168/3/2
f 97/1/2 99/1/2 169/1/2
f 99/3/2 167/3/2 169/3/2
f 167/3/2 168/3/2 169/3/2
f 168/3/2 100/3/2 170/3/2
f 169/3/2 168/3/2 170/3/2
f 100/1/2 98/1/2 170/1/2
f 95/3/2 97/3/2 171/3/2
f 97/1/2 169/1/2 171/1/2
f 169/1/2 170/1/2 171/1/2
f 170/1/2 98/1/2 172/1/2
f 171/1/2 170/1/2 172/1/2
f 98/3/2 96/3/2 172/3/2
f 93/1/2 95/1/2 173/1/2
f 95/3/2 171/3/2 173/3/2
f 171/3/2 172/3/2 173/3/2
f 172/3/2 96/3/2 174/3/2
f 173/3/2 172/3/2 174/3/2
f 96/1/2 94/1/2 174/1/2
f 93/1/2 173/1/2 175/1/2
f 173/1/2 174/1/2 175/1/2
f 174/1/2 94/1/2 176/1/2
f 175/1/2 174/1/2 176/1/2
f 179/1/3 178/1/3 177/1/3
f 180/1/3 178/1/3 179/1/3
f 181/3/3 180/3/3 179/3/3
f 182/3/3 180/3/3 181/3/3
f 183/3/3 181/3/3 179/3/3
f 184/3/3 180/3/3 182/3/3
f 185/1/3 179/1/3 177/1/3
f 185/3/3 184/3/3 183/3/3
f 185/3/3 183/3/3 179/3/3
f 186/3/3 180/3/3 184/3/3
f 186/3/3 184/3/3 185/3/3
f 186/1/3 178/1/3 180/1/3
f 187/1/3 185/1/3 177/1/3
f 187/1/3 186/1/3 185/1/3
f 188/1/3 178/1/3 186/1/3
f 188/1/3 186/1/3 187/1/3
f 189/1/4 190/1/4 191/1/4
f 191/1/4 190/1/4 192/1/4
f 191/3/4 192/3/4 193/3/4
f 193/3/4 192/3/4 194/3/4
f 191/3/4 193/3/4 195/3/4
f 194/3/4 192/3/4 196/3/4
f 189/1/4 191/1/4 197/1/4
f 195/3/4 196/3/4 197/3/4
f 191/3/4 195/3/4 197/3/4
f 196/3/4 192/3/4 198/3/4
f 197/3/4 196/3/4 198/3/4
f 192/1/4 190/1/4 198/1/4
f 189/1/4 197/1/4 199/1/4
f 197/1/4 198/1/4 199/1/4
f 198/1/4 190/1/4 200/1/4
f 199/1/4 198/1/4 200/1/4
f 203/1/5 202/1/5 201/1/5
f 204/1/5 202/1/5 203/1/5
f 207/3/5 206/3/5 205/3/5
f 208/3/5 206/3/5 207/3/5
f 209/3/6 210/3/6 211/3/6
f 211/3/6 210/3/6 212/3/6
f 213/1/6 214/1/6 215/1/6
f 215/1/6 214/1/6 216/1/6
f 213/1/6 215/1/6 217/1/6
f 215/3/6 216/3/6 217/3/6
f 217/3/6 216/3/6 218/3/6
f 218/3/6 216/3/6 219/3/6
f 216/1/6 214/1/6 220/1/6
f 219/3/6 216/3/6 220/3/6
f 213/1/6 217/1/6 221/1/6
f 217/1/6 218/1/6 221/1/6
f 218/3/6 219/3/6 222/3/6
f 221/1/6 218/1/6 222/1/6
f 219/1/6 220/1/6 223/1/6
f 222/3/6 219/3/6 223/3/6
f 220/1/6 214/1/6 224/1/6
f 223/1/6 220/1/6 224/1/6
f 213/1/6 221/1/6 225/1/6
f 222/3/6 223/3/6 225/3/6
f 223/3/6 224/3/6 225/3/6
f 221/3/6 222/3/6 225/3/6
f 224/1/6 214/1/6 226/1/6
f 225/3/6 224/3/6 226/3/6
f 213/1/6 225/1/6 227/1/6
f 225/1/6 226/1/6 227/1/6
f 226/1/6 214/1/6 228/1/6
f 227/1/6 226/1/6 228/1/6
f 213/1/6 227/1/6 229/1/6
f 227/3/6 228/3/6 229/3/6
f 228/1/6 214/1/6 230/1/6
f 229/3/6 228/3/6 230/3/6
f 213/1/6 229/1/6 231/1/6
f 229/1/6 230/1/6 231/1/6
f 230/1/6 214/1/6 232/1/6
f 231/1/6 230/1/6 232/1/6
f 231/3/6 232/3/6 233/3/6
f 233/3/6 232/3/6 234/3/6
f 213/1/6 231/1/6 235/1/6
f 231/3/6 233/3/6 235/3/6
f 233/2/6 234/2/6 236/2/6
f 235/3/6 233/3/6 236/3/6
f 234/3/6 232/3/6 237/3/6
f 236/2/6 234/2/6 237/2/6
f 232/1/6 214/1/6 238/1/6
f 237/3/6 232/3/6 238/3/6
f 235/1/6 236/1/6 239/1/6
f 236/3/6 237/3/6 239/3/6
f 237/1/6 238/1/6 240/1/6
f 239/3/6 237/3/6 240/3/6
f 235/1/6 239/1/6 241/1/6
f 213/1/6 235/1/6 241/1/6
f 239/1/6 240/1/6 241/1/6
f 238/1/6 214/1/6 242/1/6
f 241/1/6 240/1/6 242/1/6
f 240/1/6 238/1/6 242/1/6
f 241/3/6 242/3/6 243/3/6
f 243/3/6 242/3/6 244/3/6
f 244/3/6 242/3/6 245/3/6
f 245/3/6 242/3/6 246/3/6
f 213/1/6 241/1/6 247/1/6
f 241/3/6 243/3/6 247/3/6
f 243/1/6 244/1/6 248/1/6
f 247/3/6 243/3/6 248/3/6
f 244/3/6 245/3/6 249/3/6
f 248/1/6 244/1/6 249/1/6
f 245/1/6 246/1/6 250/1/6
f 249/3/6 245/3/6 250/3/6
f 246/3/6 242/3/6 251/3/6
f 250/1/6 246/1/6 251/1/6
f 242/1/6 214/1/6 252/1/6
f 251/3/6 242/3/6 252/3/6
f 249/1/6 250/1/6 253/1/6
f 250/1/6 251/1/6 253/1/6
f 251/1/6 252/1/6 253/1/6
f 247/1/6 248/1/6 253/1/6
f 213/1/6 247/1/6 253/1/6
f 248/1/6 249/1/6 253/1/6
f 252/1/6 214/1/6 254/1/6
f 253/1/6 252/1/6 254/1/6
