# MagicaVoxel @ Ephtracy

# group
o 

# material
mtllib EnemyFlag.mtl
usemtl palette

# normals
vn -1 0 0
vn 1 0 0
vn 0 0 1
vn 0 0 -1
vn 0 -1 0
vn 0 1 0

# texcoords
vt 0.841797 0.5
vt 0.986328 0.5

# verts
v -1.4 0 0.8
v -1.4 0 -0.8
v -1.4 0.3 0.8
v -1.4 0.3 -0.8
v -1.1 0 1.1
v -1.1 0 0.8
v -1.1 0 -0.8
v -1.1 0 -1.1
v -1.1 0.3 1.1
v -1.1 0.3 0.8
v -1.1 0.3 -0.8
v -1.1 0.3 -1.1
v -1 0.3 0.7
v -1 0.3 -0.7
v -1 0.6 0.7
v -1 0.6 -0.7
v -0.8 0 1.4
v -0.8 0 1.1
v -0.8 0 -1.1
v -0.8 0 -1.4
v -0.8 0.3 1.4
v -0.8 0.3 1.1
v -0.8 0.3 -1.1
v -0.8 0.3 -1.4
v -0.6 0.3 1.1
v -0.6 0.3 0.7
v -0.6 0.3 -0.7
v -0.6 0.3 -1.1
v -0.6 0.6 1.1
v -0.6 0.6 0.7
v -0.6 0.6 0.3
v -0.6 0.6 -0.3
v -0.6 0.6 -0.7
v -0.6 0.6 -1.1
v -0.6 2.6 0.3
v -0.6 2.6 -0.3
v -0.5 0.6 0.5
v -0.5 0.6 0.3
v -0.5 0.6 -0.3
v -0.5 0.6 -0.5
v -0.5 2.6 0.5
v -0.5 2.6 0.3
v -0.5 2.6 -0.3
v -0.5 2.6 -0.5
v -0.4 2.6 0.2
v -0.4 2.6 -0.2
v -0.4 5.3 0.2
v -0.4 5.3 -0.2
v -0.3 0.6 0.6
v -0.3 0.6 0.5
v -0.3 0.6 -0.5
v -0.3 0.6 -0.6
v -0.3 2.6 0.6
v -0.3 2.6 0.5
v -0.3 2.6 0.3
v -0.3 2.6 0.2
v -0.3 2.6 -0.2
v -0.3 2.6 -0.3
v -0.3 2.6 -0.5
v -0.3 2.6 -0.6
v -0.3 5.3 0.3
v -0.3 5.3 0.2
v -0.3 5.3 0.1
v -0.3 5.3 -0.1
v -0.3 5.3 -0.2
v -0.3 5.3 -0.3
v -0.3 5.6 0.1
v -0.3 5.6 -0.1
v -0.2 2.6 0.4
v -0.2 2.6 0.3
v -0.2 2.6 -0.3
v -0.2 2.6 -0.4
v -0.2 5.3 0.4
v -0.2 5.3 0.3
v -0.2 5.3 0.2
v -0.2 5.3 0.1
v -0.2 5.3 -0.1
v -0.2 5.3 -0.2
v -0.2 5.3 -0.3
v -0.2 5.3 -0.4
v -0.2 5.6 0.2
v -0.2 5.6 0.1
v -0.2 5.6 -0.1
v -0.2 5.6 -0.2
v -0.1 5.3 0.3
v -0.1 5.3 0.2
v -0.1 5.3 -0.2
v -0.1 5.3 -0.3
v -0.1 5.6 0.3
v -0.1 5.6 0.2
v -0.1 5.6 0.1
v -0.1 5.6 -0.1
v -0.1 5.6 -0.2
v -0.1 5.6 -0.3
v -0.1 7 -1
v -0.1 7 -1.3
v -0.1 7.1 -1.3
v -0.1 7.1 -1.5
v -0.1 7.2 -0.1
v -0.1 7.2 -1
v -0.1 7.3 -0.1
v -0.1 7.3 -1
v -0.1 7.6 -0.1
v -0.1 7.6 -1
v -0.1 7.7 -0.1
v -0.1 7.7 -1
v -0.1 7.8 -1
v -0.1 7.8 -1.5
v -0.1 8 0.1
v -0.1 8 -0.1
v 0 7 -1.6
v 0 7 -2.7
v 0 7.1 -1.5
v 0 7.1 -1.6
v 0 7.1 -2.5
v 0 7.1 -2.7
v 0 7.2 -2.4
v 0 7.2 -2.5
v 0 7.3 -2.3
v 0 7.3 -2.4
v 0 7.4 -2.2
v 0 7.4 -2.3
v 0 7.5 -2
v 0 7.5 -2.2
v 0 7.6 -1.8
v 0 7.6 -2
v 0 7.7 -1.6
v 0 7.7 -1.8
v 0 7.8 -1.5
v 0 7.8 -1.6
v 0 7 -1
v 0 7 -1.3
v 0 7.1 -1.3
v 0 7.1 -1.4
v 0 7.2 -0.1
v 0 7.2 -1
v 0 7.3 -0.1
v 0 7.3 -1
v 0 7.6 -0.1
v 0 7.6 -1
v 0 7.7 -0.1
v 0 7.7 -1
v 0 7.8 -1
v 0 7.8 -1.4
v 0.1 5.3 0.3
v 0.1 5.3 0.2
v 0.1 5.3 -0.2
v 0.1 5.3 -0.3
v 0.1 5.6 0.3
v 0.1 5.6 0.2
v 0.1 5.6 0.1
v 0.1 5.6 -0.1
v 0.1 5.6 -0.2
v 0.1 5.6 -0.3
v 0.1 7 -1.6
v 0.1 7 -2.7
v 0.1 7.1 -1.4
v 0.1 7.1 -1.6
v 0.1 7.1 -2.5
v 0.1 7.1 -2.7
v 0.1 7.2 -2.4
v 0.1 7.2 -2.5
v 0.1 7.3 -2.3
v 0.1 7.3 -2.4
v 0.1 7.4 -2.2
v 0.1 7.4 -2.3
v 0.1 7.5 -2
v 0.1 7.5 -2.2
v 0.1 7.6 -1.8
v 0.1 7.6 -2
v 0.1 7.7 -1.6
v 0.1 7.7 -1.8
v 0.1 7.8 -1.4
v 0.1 7.8 -1.6
v 0.1 8 0.1
v 0.1 8 -0.1
v 0.2 2.6 0.4
v 0.2 2.6 0.3
v 0.2 2.6 -0.3
v 0.2 2.6 -0.4
v 0.2 5.3 0.4
v 0.2 5.3 0.3
v 0.2 5.3 0.2
v 0.2 5.3 0.1
v 0.2 5.3 -0.1
v 0.2 5.3 -0.2
v 0.2 5.3 -0.3
v 0.2 5.3 -0.4
v 0.2 5.6 0.2
v 0.2 5.6 0.1
v 0.2 5.6 -0.1
v 0.2 5.6 -0.2
v 0.3 0.6 0.6
v 0.3 0.6 0.5
v 0.3 0.6 -0.5
v 0.3 0.6 -0.6
v 0.3 2.6 0.6
v 0.3 2.6 0.5
v 0.3 2.6 0.3
v 0.3 2.6 0.2
v 0.3 2.6 -0.2
v 0.3 2.6 -0.3
v 0.3 2.6 -0.5
v 0.3 2.6 -0.6
v 0.3 5.3 0.3
v 0.3 5.3 0.2
v 0.3 5.3 0.1
v 0.3 5.3 -0.1
v 0.3 5.3 -0.2
v 0.3 5.3 -0.3
v 0.3 5.6 0.1
v 0.3 5.6 -0.1
v 0.4 2.6 0.2
v 0.4 2.6 -0.2
v 0.4 5.3 0.2
v 0.4 5.3 -0.2
v 0.5 0.6 0.5
v 0.5 0.6 0.3
v 0.5 0.6 -0.3
v 0.5 0.6 -0.5
v 0.5 2.6 0.5
v 0.5 2.6 0.3
v 0.5 2.6 -0.3
v 0.5 2.6 -0.5
v 0.6 0.3 1.1
v 0.6 0.3 0.7
v 0.6 0.3 -0.7
v 0.6 0.3 -1.1
v 0.6 0.6 1.1
v 0.6 0.6 0.7
v 0.6 0.6 0.3
v 0.6 0.6 -0.3
v 0.6 0.6 -0.7
v 0.6 0.6 -1.1
v 0.6 2.6 0.3
v 0.6 2.6 -0.3
v 0.8 0 1.4
v 0.8 0 1.1
v 0.8 0 -1.1
v 0.8 0 -1.4
v 0.8 0.3 1.4
v 0.8 0.3 1.1
v 0.8 0.3 -1.1
v 0.8 0.3 -1.4
v 1 0.3 0.7
v 1 0.3 -0.7
v 1 0.6 0.7
v 1 0.6 -0.7
v 1.1 0 1.1
v 1.1 0 0.8
v 1.1 0 -0.8
v 1.1 0 -1.1
v 1.1 0.3 1.1
v 1.1 0.3 0.8
v 1.1 0.3 -0.8
v 1.1 0.3 -1.1
v 1.4 0 0.8
v 1.4 0 -0.8
v 1.4 0.3 0.8
v 1.4 0.3 -0.8
v -0.8 0 1.4
v -0.8 0.3 1.4
v 0.8 0 1.4
v 0.8 0.3 1.4
v -1.1 0 1.1
v -1.1 0.3 1.1
v -0.8 0 1.1
v -0.8 0.3 1.1
v -0.6 0.3 1.1
v -0.6 0.6 1.1
v 0.6 0.3 1.1
v 0.6 0.6 1.1
v 0.8 0 1.1
v 0.8 0.3 1.1
v 1.1 0 1.1
v 1.1 0.3 1.1
v -1.4 0 0.8
v -1.4 0.3 0.8
v -1.1 0 0.8
v -1.1 0.3 0.8
v 1.1 0 0.8
v 1.1 0.3 0.8
v 1.4 0 0.8
v 1.4 0.3 0.8
v -1 0.3 0.7
v -1 0.6 0.7
v -0.6 0.3 0.7
v -0.6 0.6 0.7
v 0.6 0.3 0.7
v 0.6 0.6 0.7
v 1 0.3 0.7
v 1 0.6 0.7
v -0.3 0.6 0.6
v -0.3 2.6 0.6
v 0.3 0.6 0.6
v 0.3 2.6 0.6
v -0.5 0.6 0.5
v -0.5 2.6 0.5
v -0.3 0.6 0.5
v -0.3 2.6 0.5
v 0.3 0.6 0.5
v 0.3 2.6 0.5
v 0.5 0.6 0.5
v 0.5 2.6 0.5
v -0.2 2.6 0.4
v -0.2 5.3 0.4
v 0.2 2.6 0.4
v 0.2 5.3 0.4
v -0.6 0.6 0.3
v -0.6 2.6 0.3
v -0.5 0.6 0.3
v -0.5 2.6 0.3
v -0.3 2.6 0.3
v -0.3 5.3 0.3
v -0.2 2.6 0.3
v -0.2 5.3 0.3
v -0.1 5.3 0.3
v -0.1 5.6 0.3
v 0.1 5.3 0.3
v 0.1 5.6 0.3
v 0.2 2.6 0.3
v 0.2 5.3 0.3
v 0.3 2.6 0.3
v 0.3 5.3 0.3
v 0.5 0.6 0.3
v 0.5 2.6 0.3
v 0.6 0.6 0.3
v 0.6 2.6 0.3
v -0.4 2.6 0.2
v -0.4 5.3 0.2
v -0.3 2.6 0.2
v -0.3 5.3 0.2
v -0.2 5.3 0.2
v -0.2 5.6 0.2
v -0.1 5.3 0.2
v -0.1 5.6 0.2
v 0.1 5.3 0.2
v 0.1 5.6 0.2
v 0.2 5.3 0.2
v 0.2 5.6 0.2
v 0.3 2.6 0.2
v 0.3 5.3 0.2
v 0.4 2.6 0.2
v 0.4 5.3 0.2
v -0.3 5.3 0.1
v -0.3 5.6 0.1
v -0.2 5.3 0.1
v -0.2 5.6 0.1
v -0.1 5.6 0.1
v -0.1 8 0.1
v 0.1 5.6 0.1
v 0.1 8 0.1
v 0.2 5.3 0.1
v 0.2 5.6 0.1
v 0.3 5.3 0.1
v 0.3 5.6 0.1
v -0.1 7 -1
v -0.1 7.2 -1
v -0.1 7.3 -1
v -0.1 7.6 -1
v -0.1 7.7 -1
v -0.1 7.8 -1
v 0 7 -1
v 0 7.2 -1
v 0 7.3 -1
v 0 7.6 -1
v 0 7.7 -1
v 0 7.8 -1
v 0 7.1 -1.4
v 0 7.8 -1.4
v 0.1 7.1 -1.4
v 0.1 7.8 -1.4
v 0 7 -1.6
v 0 7.1 -1.6
v 0.1 7 -1.6
v 0.1 7.1 -1.6
v -0.3 5.3 -0.1
v -0.3 5.6 -0.1
v -0.2 5.3 -0.1
v -0.2 5.6 -0.1
v -0.1 5.6 -0.1
v -0.1 7.2 -0.1
v -0.1 7.3 -0.1
v -0.1 7.6 -0.1
v -0.1 7.7 -0.1
v -0.1 8 -0.1
v 0 7.2 -0.1
v 0 7.3 -0.1
v 0 7.6 -0.1
v 0 7.7 -0.1
v 0.1 5.6 -0.1
v 0.1 8 -0.1
v 0.2 5.3 -0.1
v 0.2 5.6 -0.1
v 0.3 5.3 -0.1
v 0.3 5.6 -0.1
v -0.4 2.6 -0.2
v -0.4 5.3 -0.2
v -0.3 2.6 -0.2
v -0.3 5.3 -0.2
v -0.2 5.3 -0.2
v -0.2 5.6 -0.2
v -0.1 5.3 -0.2
v -0.1 5.6 -0.2
v 0.1 5.3 -0.2
v 0.1 5.6 -0.2
v 0.2 5.3 -0.2
v 0.2 5.6 -0.2
v 0.3 2.6 -0.2
v 0.3 5.3 -0.2
v 0.4 2.6 -0.2
v 0.4 5.3 -0.2
v -0.6 0.6 -0.3
v -0.6 2.6 -0.3
v -0.5 0.6 -0.3
v -0.5 2.6 -0.3
v -0.3 2.6 -0.3
v -0.3 5.3 -0.3
v -0.2 2.6 -0.3
v -0.2 5.3 -0.3
v -0.1 5.3 -0.3
v -0.1 5.6 -0.3
v 0.1 5.3 -0.3
v 0.1 5.6 -0.3
v 0.2 2.6 -0.3
v 0.2 5.3 -0.3
v 0.3 2.6 -0.3
v 0.3 5.3 -0.3
v 0.5 0.6 -0.3
v 0.5 2.6 -0.3
v 0.6 0.6 -0.3
v 0.6 2.6 -0.3
v -0.2 2.6 -0.4
v -0.2 5.3 -0.4
v 0.2 2.6 -0.4
v 0.2 5.3 -0.4
v -0.5 0.6 -0.5
v -0.5 2.6 -0.5
v -0.3 0.6 -0.5
v -0.3 2.6 -0.5
v 0.3 0.6 -0.5
v 0.3 2.6 -0.5
v 0.5 0.6 -0.5
v 0.5 2.6 -0.5
v -0.3 0.6 -0.6
v -0.3 2.6 -0.6
v 0.3 0.6 -0.6
v 0.3 2.6 -0.6
v -1 0.3 -0.7
v -1 0.6 -0.7
v -0.6 0.3 -0.7
v -0.6 0.6 -0.7
v 0.6 0.3 -0.7
v 0.6 0.6 -0.7
v 1 0.3 -0.7
v 1 0.6 -0.7
v -1.4 0 -0.8
v -1.4 0.3 -0.8
v -1.1 0 -0.8
v -1.1 0.3 -0.8
v 1.1 0 -0.8
v 1.1 0.3 -0.8
v 1.4 0 -0.8
v 1.4 0.3 -0.8
v -1.1 0 -1.1
v -1.1 0.3 -1.1
v -0.8 0 -1.1
v -0.8 0.3 -1.1
v -0.6 0.3 -1.1
v -0.6 0.6 -1.1
v 0.6 0.3 -1.1
v 0.6 0.6 -1.1
v 0.8 0 -1.1
v 0.8 0.3 -1.1
v 1.1 0 -1.1
v 1.1 0.3 -1.1
v -0.1 7 -1.3
v -0.1 7.1 -1.3
v 0 7 -1.3
v 0 7.1 -1.3
v -0.8 0 -1.4
v -0.8 0.3 -1.4
v 0.8 0 -1.4
v 0.8 0.3 -1.4
v -0.1 7.1 -1.5
v -0.1 7.8 -1.5
v 0 7.1 -1.5
v 0 7.8 -1.5
v 0 7.7 -1.6
v 0 7.8 -1.6
v 0.1 7.7 -1.6
v 0.1 7.8 -1.6
v 0 7.6 -1.8
v 0 7.7 -1.8
v 0.1 7.6 -1.8
v 0.1 7.7 -1.8
v 0 7.5 -2
v 0 7.6 -2
v 0.1 7.5 -2
v 0.1 7.6 -2
v 0 7.4 -2.2
v 0 7.5 -2.2
v 0.1 7.4 -2.2
v 0.1 7.5 -2.2
v 0 7.3 -2.3
v 0 7.4 -2.3
v 0.1 7.3 -2.3
v 0.1 7.4 -2.3
v 0 7.2 -2.4
v 0 7.3 -2.4
v 0.1 7.2 -2.4
v 0.1 7.3 -2.4
v 0 7.1 -2.5
v 0 7.2 -2.5
v 0.1 7.1 -2.5
v 0.1 7.2 -2.5
v 0 7 -2.7
v 0 7.1 -2.7
v 0.1 7 -2.7
v 0.1 7.1 -2.7
v -0.8 0 1.4
v 0.8 0 1.4
v -1.1 0 1.1
v -0.8 0 1.1
v 0.8 0 1.1
v 1.1 0 1.1
v -1.4 0 0.8
v -1.1 0 0.8
v 1.1 0 0.8
v 1.4 0 0.8
v -1.4 0 -0.8
v -1.1 0 -0.8
v 1.1 0 -0.8
v 1.4 0 -0.8
v -1.1 0 -1.1
v -0.8 0 -1.1
v 0.8 0 -1.1
v 1.1 0 -1.1
v -0.8 0 -1.4
v 0.8 0 -1.4
v -0.1 7 -1
v 0 7 -1
v -0.1 7 -1.3
v 0 7 -1.3
v 0 7 -1.6
v 0.1 7 -1.6
v 0 7 -2.7
v 0.1 7 -2.7
v -0.1 7.1 -1.3
v 0 7.1 -1.3
v 0 7.1 -1.4
v 0.1 7.1 -1.4
v -0.1 7.1 -1.5
v 0 7.1 -1.5
v 0 7.1 -1.6
v 0.1 7.1 -1.6
v -0.1 7.2 -0.1
v 0 7.2 -0.1
v -0.1 7.2 -1
v 0 7.2 -1
v -0.1 7.6 -0.1
v 0 7.6 -0.1
v -0.1 7.6 -1
v 0 7.6 -1
v -0.8 0.3 1.4
v 0.8 0.3 1.4
v -1.1 0.3 1.1
v -0.8 0.3 1.1
v -0.6 0.3 1.1
v 0.6 0.3 1.1
v 0.8 0.3 1.1
v 1.1 0.3 1.1
v -1.4 0.3 0.8
v -1.1 0.3 0.8
v 1.1 0.3 0.8
v 1.4 0.3 0.8
v -1 0.3 0.7
v -0.6 0.3 0.7
v 0.6 0.3 0.7
v 1 0.3 0.7
v -1 0.3 -0.7
v -0.6 0.3 -0.7
v 0.6 0.3 -0.7
v 1 0.3 -0.7
v -1.4 0.3 -0.8
v -1.1 0.3 -0.8
v 1.1 0.3 -0.8
v 1.4 0.3 -0.8
v -1.1 0.3 -1.1
v -0.8 0.3 -1.1
v -0.6 0.3 -1.1
v 0.6 0.3 -1.1
v 0.8 0.3 -1.1
v 1.1 0.3 -1.1
v -0.8 0.3 -1.4
v 0.8 0.3 -1.4
v -0.6 0.6 1.1
v 0.6 0.6 1.1
v -1 0.6 0.7
v -0.6 0.6 0.7
v 0.6 0.6 0.7
v 1 0.6 0.7
v -0.3 0.6 0.6
v 0.3 0.6 0.6
v -0.5 0.6 0.5
v -0.3 0.6 0.5
v 0.3 0.6 0.5
v 0.5 0.6 0.5
v -0.6 0.6 0.3
v -0.5 0.6 0.3
v 0.5 0.6 0.3
v 0.6 0.6 0.3
v -0.6 0.6 -0.3
v -0.5 0.6 -0.3
v 0.5 0.6 -0.3
v 0.6 0.6 -0.3
v -0.5 0.6 -0.5
v -0.3 0.6 -0.5
v 0.3 0.6 -0.5
v 0.5 0.6 -0.5
v -0.3 0.6 -0.6
v 0.3 0.6 -0.6
v -1 0.6 -0.7
v -0.6 0.6 -0.7
v 0.6 0.6 -0.7
v 1 0.6 -0.7
v -0.6 0.6 -1.1
v 0.6 0.6 -1.1
v -0.3 2.6 0.6
v 0.3 2.6 0.6
v -0.5 2.6 0.5
v -0.3 2.6 0.5
v 0.3 2.6 0.5
v 0.5 2.6 0.5
v -0.2 2.6 0.4
v 0.2 2.6 0.4
v -0.6 2.6 0.3
v -0.5 2.6 0.3
v -0.3 2.6 0.3
v -0.2 2.6 0.3
v 0.2 2.6 0.3
v 0.3 2.6 0.3
v 0.5 2.6 0.3
v 0.6 2.6 0.3
v -0.4 2.6 0.2
v -0.3 2.6 0.2
v 0.3 2.6 0.2
v 0.4 2.6 0.2
v -0.4 2.6 -0.2
v -0.3 2.6 -0.2
v 0.3 2.6 -0.2
v 0.4 2.6 -0.2
v -0.6 2.6 -0.3
v -0.5 2.6 -0.3
v -0.3 2.6 -0.3
v -0.2 2.6 -0.3
v 0.2 2.6 -0.3
v 0.3 2.6 -0.3
v 0.5 2.6 -0.3
v 0.6 2.6 -0.3
v -0.2 2.6 -0.4
v 0.2 2.6 -0.4
v -0.5 2.6 -0.5
v -0.3 2.6 -0.5
v 0.3 2.6 -0.5
v 0.5 2.6 -0.5
v -0.3 2.6 -0.6
v 0.3 2.6 -0.6
v -0.2 5.3 0.4
v 0.2 5.3 0.4
v -0.3 5.3 0.3
v -0.2 5.3 0.3
v -0.1 5.3 0.3
v 0.1 5.3 0.3
v 0.2 5.3 0.3
v 0.3 5.3 0.3
v -0.4 5.3 0.2
v -0.3 5.3 0.2
v -0.2 5.3 0.2
v -0.1 5.3 0.2
v 0.1 5.3 0.2
v 0.2 5.3 0.2
v 0.3 5.3 0.2
v 0.4 5.3 0.2
v -0.3 5.3 0.1
v -0.2 5.3 0.1
v 0.2 5.3 0.1
v 0.3 5.3 0.1
v -0.3 5.3 -0.1
v -0.2 5.3 -0.1
v 0.2 5.3 -0.1
v 0.3 5.3 -0.1
v -0.4 5.3 -0.2
v -0.3 5.3 -0.2
v -0.2 5.3 -0.2
v -0.1 5.3 -0.2
v 0.1 5.3 -0.2
v 0.2 5.3 -0.2
v 0.3 5.3 -0.2
v 0.4 5.3 -0.2
v -0.3 5.3 -0.3
v -0.2 5.3 -0.3
v -0.1 5.3 -0.3
v 0.1 5.3 -0.3
v 0.2 5.3 -0.3
v 0.3 5.3 -0.3
v -0.2 5.3 -0.4
v 0.2 5.3 -0.4
v -0.1 5.6 0.3
v 0.1 5.6 0.3
v -0.2 5.6 0.2
v -0.1 5.6 0.2
v 0.1 5.6 0.2
v 0.2 5.6 0.2
v -0.3 5.6 0.1
v -0.2 5.6 0.1
v -0.1 5.6 0.1
v 0.1 5.6 0.1
v 0.2 5.6 0.1
v 0.3 5.6 0.1
v -0.3 5.6 -0.1
v -0.2 5.6 -0.1
v -0.1 5.6 -0.1
v 0.1 5.6 -0.1
v 0.2 5.6 -0.1
v 0.3 5.6 -0.1
v -0.2 5.6 -0.2
v -0.1 5.6 -0.2
v 0.1 5.6 -0.2
v 0.2 5.6 -0.2
v -0.1 5.6 -0.3
v 0.1 5.6 -0.3
v 0 7.1 -2.5
v 0.1 7.1 -2.5
v 0 7.1 -2.7
v 0.1 7.1 -2.7
v 0 7.2 -2.4
v 0.1 7.2 -2.4
v 0 7.2 -2.5
v 0.1 7.2 -2.5
v -0.1 7.3 -0.1
v 0 7.3 -0.1
v -0.1 7.3 -1
v 0 7.3 -1
v 0 7.3 -2.3
v 0.1 7.3 -2.3
v 0 7.3 -2.4
v 0.1 7.3 -2.4
v 0 7.4 -2.2
v 0.1 7.4 -2.2
v 0 7.4 -2.3
v 0.1 7.4 -2.3
v 0 7.5 -2
v 0.1 7.5 -2
v 0 7.5 -2.2
v 0.1 7.5 -2.2
v 0 7.6 -1.8
v 0.1 7.6 -1.8
v 0 7.6 -2
v 0.1 7.6 -2
v -0.1 7.7 -0.1
v 0 7.7 -0.1
v -0.1 7.7 -1
v 0 7.7 -1
v 0 7.7 -1.6
v 0.1 7.7 -1.6
v 0 7.7 -1.8
v 0.1 7.7 -1.8
v -0.1 7.8 -1
v 0 7.8 -1
v 0 7.8 -1.4
v 0.1 7.8 -1.4
v -0.1 7.8 -1.5
v 0 7.8 -1.5
v 0 7.8 -1.6
v 0.1 7.8 -1.6
v -0.1 8 0.1
v 0.1 8 0.1
v -0.1 8 -0.1
v 0.1 8 -0.1

# faces
f 3/2/1 2/2/1 1/2/1
f 4/2/1 2/2/1 3/2/1
f 9/2/1 6/2/1 5/2/1
f 10/2/1 6/2/1 9/2/1
f 11/2/1 8/2/1 7/2/1
f 12/2/1 8/2/1 11/2/1
f 15/2/1 14/2/1 13/2/1
f 16/2/1 14/2/1 15/2/1
f 21/2/1 18/2/1 17/2/1
f 22/2/1 18/2/1 21/2/1
f 23/2/1 20/2/1 19/2/1
f 24/2/1 20/2/1 23/2/1
f 29/2/1 26/2/1 25/2/1
f 30/2/1 26/2/1 29/2/1
f 33/2/1 28/2/1 27/2/1
f 34/2/1 28/2/1 33/2/1
f 35/2/1 32/2/1 31/2/1
f 36/2/1 32/2/1 35/2/1
f 41/2/1 38/2/1 37/2/1
f 42/2/1 38/2/1 41/2/1
f 43/2/1 40/2/1 39/2/1
f 44/2/1 40/2/1 43/2/1
f 47/2/1 46/2/1 45/2/1
f 48/2/1 46/2/1 47/2/1
f 53/2/1 50/2/1 49/2/1
f 54/2/1 50/2/1 53/2/1
f 59/2/1 52/2/1 51/2/1
f 60/2/1 52/2/1 59/2/1
f 61/2/1 56/2/1 55/2/1
f 62/2/1 56/2/1 61/2/1
f 65/2/1 58/2/1 57/2/1
f 66/2/1 58/2/1 65/2/1
f 67/2/1 64/2/1 63/2/1
f 68/2/1 64/2/1 67/2/1
f 73/2/1 70/2/1 69/2/1
f 74/2/1 70/2/1 73/2/1
f 79/2/1 72/2/1 71/2/1
f 80/2/1 72/2/1 79/2/1
f 81/2/1 76/2/1 75/2/1
f 82/2/1 76/2/1 81/2/1
f 83/2/1 78/2/1 77/2/1
f 84/2/1 78/2/1 83/2/1
f 89/2/1 86/2/1 85/2/1
f 90/2/1 86/2/1 89/2/1
f 93/2/1 88/2/1 87/2/1
f 94/2/1 88/2/1 93/2/1
f 97/1/1 96/1/1 95/1/1
f 99/2/1 92/2/1 91/2/1
f 100/1/1 98/1/1 97/1/1
f 100/1/1 97/1/1 95/1/1
f 101/2/1 99/2/1 91/2/1
f 101/2/1 100/2/1 99/2/1
f 102/1/1 98/1/1 100/1/1
f 102/2/1 100/2/1 101/2/1
f 103/2/1 101/2/1 91/2/1
f 104/1/1 98/1/1 102/1/1
f 105/2/1 103/2/1 91/2/1
f 105/2/1 104/2/1 103/2/1
f 106/1/1 98/1/1 104/1/1
f 106/2/1 104/2/1 105/2/1
f 107/1/1 98/1/1 106/1/1
f 108/1/1 98/1/1 107/1/1
f 109/2/1 105/2/1 91/2/1
f 110/2/1 105/2/1 109/2/1
f 114/1/1 112/1/1 111/1/1
f 115/1/1 112/1/1 114/1/1
f 116/1/1 112/1/1 115/1/1
f 117/1/1 114/1/1 113/1/1
f 117/1/1 115/1/1 114/1/1
f 118/1/1 115/1/1 117/1/1
f 119/1/1 117/1/1 113/1/1
f 120/1/1 117/1/1 119/1/1
f 121/1/1 119/1/1 113/1/1
f 122/1/1 119/1/1 121/1/1
f 123/1/1 121/1/1 113/1/1
f 124/1/1 121/1/1 123/1/1
f 125/1/1 123/1/1 113/1/1
f 126/1/1 123/1/1 125/1/1
f 127/1/1 125/1/1 113/1/1
f 128/1/1 125/1/1 127/1/1
f 129/1/1 127/1/1 113/1/1
f 130/1/1 127/1/1 129/1/1
f 131/1/2 132/1/2 133/1/2
f 131/1/2 133/1/2 136/1/2
f 133/1/2 134/1/2 136/1/2
f 135/2/2 136/2/2 137/2/2
f 136/1/2 134/1/2 138/1/2
f 137/2/2 136/2/2 138/2/2
f 138/1/2 134/1/2 140/1/2
f 139/2/2 140/2/2 141/2/2
f 140/1/2 134/1/2 142/1/2
f 141/2/2 140/2/2 142/2/2
f 142/1/2 134/1/2 143/1/2
f 143/1/2 134/1/2 144/1/2
f 145/2/2 146/2/2 149/2/2
f 149/2/2 146/2/2 150/2/2
f 147/2/2 148/2/2 153/2/2
f 153/2/2 148/2/2 154/2/2
f 155/1/2 156/1/2 158/1/2
f 158/1/2 156/1/2 159/1/2
f 159/1/2 156/1/2 160/1/2
f 157/1/2 158/1/2 161/1/2
f 158/1/2 159/1/2 161/1/2
f 161/1/2 159/1/2 162/1/2
f 157/1/2 161/1/2 163/1/2
f 163/1/2 161/1/2 164/1/2
f 157/1/2 163/1/2 165/1/2
f 165/1/2 163/1/2 166/1/2
f 157/1/2 165/1/2 167/1/2
f 167/1/2 165/1/2 168/1/2
f 157/1/2 167/1/2 169/1/2
f 169/1/2 167/1/2 170/1/2
f 157/1/2 169/1/2 171/1/2
f 171/1/2 169/1/2 172/1/2
f 157/1/2 171/1/2 173/1/2
f 173/1/2 171/1/2 174/1/2
f 151/2/2 152/2/2 175/2/2
f 175/2/2 152/2/2 176/2/2
f 177/2/2 178/2/2 181/2/2
f 181/2/2 178/2/2 182/2/2
f 179/2/2 180/2/2 187/2/2
f 187/2/2 180/2/2 188/2/2
f 183/2/2 184/2/2 189/2/2
f 189/2/2 184/2/2 190/2/2
f 185/2/2 186/2/2 191/2/2
f 191/2/2 186/2/2 192/2/2
f 193/2/2 194/2/2 197/2/2
f 197/2/2 194/2/2 198/2/2
f 195/2/2 196/2/2 203/2/2
f 203/2/2 196/2/2 204/2/2
f 199/2/2 200/2/2 205/2/2
f 205/2/2 200/2/2 206/2/2
f 201/2/2 202/2/2 209/2/2
f 209/2/2 202/2/2 210/2/2
f 207/2/2 208/2/2 211/2/2
f 211/2/2 208/2/2 212/2/2
f 213/2/2 214/2/2 215/2/2
f 215/2/2 214/2/2 216/2/2
f 217/2/2 218/2/2 221/2/2
f 221/2/2 218/2/2 222/2/2
f 219/2/2 220/2/2 223/2/2
f 223/2/2 220/2/2 224/2/2
f 225/2/2 226/2/2 229/2/2
f 229/2/2 226/2/2 230/2/2
f 227/2/2 228/2/2 233/2/2
f 233/2/2 228/2/2 234/2/2
f 231/2/2 232/2/2 235/2/2
f 235/2/2 232/2/2 236/2/2
f 237/2/2 238/2/2 241/2/2
f 241/2/2 238/2/2 242/2/2
f 239/2/2 240/2/2 243/2/2
f 243/2/2 240/2/2 244/2/2
f 245/2/2 246/2/2 247/2/2
f 247/2/2 246/2/2 248/2/2
f 249/2/2 250/2/2 253/2/2
f 253/2/2 250/2/2 254/2/2
f 251/2/2 252/2/2 255/2/2
f 255/2/2 252/2/2 256/2/2
f 257/2/2 258/2/2 259/2/2
f 259/2/2 258/2/2 260/2/2
f 263/2/3 262/2/3 261/2/3
f 264/2/3 262/2/3 263/2/3
f 267/2/3 266/2/3 265/2/3
f 268/2/3 266/2/3 267/2/3
f 271/2/3 270/2/3 269/2/3
f 272/2/3 270/2/3 271/2/3
f 275/2/3 274/2/3 273/2/3
f 276/2/3 274/2/3 275/2/3
f 279/2/3 278/2/3 277/2/3
f 280/2/3 278/2/3 279/2/3
f 283/2/3 282/2/3 281/2/3
f 284/2/3 282/2/3 283/2/3
f 287/2/3 286/2/3 285/2/3
f 288/2/3 286/2/3 287/2/3
f 291/2/3 290/2/3 289/2/3
f 292/2/3 290/2/3 291/2/3
f 295/2/3 294/2/3 293/2/3
f 296/2/3 294/2/3 295/2/3
f 299/2/3 298/2/3 297/2/3
f 300/2/3 298/2/3 299/2/3
f 303/2/3 302/2/3 301/2/3
f 304/2/3 302/2/3 303/2/3
f 307/2/3 306/2/3 305/2/3
f 308/2/3 306/2/3 307/2/3
f 311/2/3 310/2/3 309/2/3
f 312/2/3 310/2/3 311/2/3
f 315/2/3 314/2/3 313/2/3
f 316/2/3 314/2/3 315/2/3
f 319/2/3 318/2/3 317/2/3
f 320/2/3 318/2/3 319/2/3
f 323/2/3 322/2/3 321/2/3
f 324/2/3 322/2/3 323/2/3
f 327/2/3 326/2/3 325/2/3
f 328/2/3 326/2/3 327/2/3
f 331/2/3 330/2/3 329/2/3
f 332/2/3 330/2/3 331/2/3
f 335/2/3 334/2/3 333/2/3
f 336/2/3 334/2/3 335/2/3
f 339/2/3 338/2/3 337/2/3
f 340/2/3 338/2/3 339/2/3
f 343/2/3 342/2/3 341/2/3
f 344/2/3 342/2/3 343/2/3
f 347/2/3 346/2/3 345/2/3
f 348/2/3 346/2/3 347/2/3
f 351/2/3 350/2/3 349/2/3
f 352/2/3 350/2/3 351/2/3
f 355/2/3 354/2/3 353/2/3
f 356/2/3 354/2/3 355/2/3
f 363/1/3 358/1/3 357/1/3
f 364/1/3 358/1/3 363/1/3
f 365/1/3 360/1/3 359/1/3
f 366/1/3 360/1/3 365/1/3
f 367/1/3 362/1/3 361/1/3
f 368/1/3 362/1/3 367/1/3
f 371/1/3 370/1/3 369/1/3
f 372/1/3 370/1/3 371/1/3
f 375/1/3 374/1/3 373/1/3
f 376/1/3 374/1/3 375/1/3
f 377/2/4 378/2/4 379/2/4
f 379/2/4 378/2/4 380/2/4
f 381/2/4 382/2/4 387/2/4
f 383/2/4 384/2/4 388/2/4
f 388/2/4 384/2/4 389/2/4
f 385/2/4 386/2/4 390/2/4
f 388/2/4 389/2/4 391/2/4
f 389/2/4 390/2/4 391/2/4
f 381/2/4 387/2/4 391/2/4
f 387/2/4 388/2/4 391/2/4
f 390/2/4 386/2/4 392/2/4
f 391/2/4 390/2/4 392/2/4
f 393/2/4 394/2/4 395/2/4
f 395/2/4 394/2/4 396/2/4
f 397/2/4 398/2/4 399/2/4
f 399/2/4 398/2/4 400/2/4
f 401/2/4 402/2/4 403/2/4
f 403/2/4 402/2/4 404/2/4
f 405/2/4 406/2/4 407/2/4
f 407/2/4 406/2/4 408/2/4
f 409/2/4 410/2/4 411/2/4
f 411/2/4 410/2/4 412/2/4
f 413/2/4 414/2/4 415/2/4
f 415/2/4 414/2/4 416/2/4
f 417/2/4 418/2/4 419/2/4
f 419/2/4 418/2/4 420/2/4
f 421/2/4 422/2/4 423/2/4
f 423/2/4 422/2/4 424/2/4
f 425/2/4 426/2/4 427/2/4
f 427/2/4 426/2/4 428/2/4
f 429/2/4 430/2/4 431/2/4
f 431/2/4 430/2/4 432/2/4
f 433/2/4 434/2/4 435/2/4
f 435/2/4 434/2/4 436/2/4
f 437/2/4 438/2/4 439/2/4
f 439/2/4 438/2/4 440/2/4
f 441/2/4 442/2/4 443/2/4
f 443/2/4 442/2/4 444/2/4
f 445/2/4 446/2/4 447/2/4
f 447/2/4 446/2/4 448/2/4
f 449/2/4 450/2/4 451/2/4
f 451/2/4 450/2/4 452/2/4
f 453/2/4 454/2/4 455/2/4
f 455/2/4 454/2/4 456/2/4
f 457/2/4 458/2/4 459/2/4
f 459/2/4 458/2/4 460/2/4
f 461/2/4 462/2/4 463/2/4
f 463/2/4 462/2/4 464/2/4
f 465/2/4 466/2/4 467/2/4
f 467/2/4 466/2/4 468/2/4
f 469/2/4 470/2/4 471/2/4
f 471/2/4 470/2/4 472/2/4
f 473/2/4 474/2/4 475/2/4
f 475/2/4 474/2/4 476/2/4
f 477/1/4 478/1/4 479/1/4
f 479/1/4 478/1/4 480/1/4
f 481/2/4 482/2/4 483/2/4
f 483/2/4 482/2/4 484/2/4
f 485/1/4 486/1/4 487/1/4
f 487/1/4 486/1/4 488/1/4
f 489/1/4 490/1/4 491/1/4
f 491/1/4 490/1/4 492/1/4
f 493/1/4 494/1/4 495/1/4
f 495/1/4 494/1/4 496/1/4
f 497/1/4 498/1/4 499/1/4
f 499/1/4 498/1/4 500/1/4
f 501/1/4 502/1/4 503/1/4
f 503/1/4 502/1/4 504/1/4
f 505/1/4 506/1/4 507/1/4
f 507/1/4 506/1/4 508/1/4
f 509/1/4 510/1/4 511/1/4
f 511/1/4 510/1/4 512/1/4
f 513/1/4 514/1/4 515/1/4
f 515/1/4 514/1/4 516/1/4
f 517/1/4 518/1/4 519/1/4
f 519/1/4 518/1/4 520/1/4
f 524/2/5 522/2/5 521/2/5
f 525/2/5 522/2/5 524/2/5
f 528/2/5 524/2/5 523/2/5
f 528/2/5 526/2/5 525/2/5
f 528/2/5 525/2/5 524/2/5
f 529/2/5 526/2/5 528/2/5
f 531/2/5 528/2/5 527/2/5
f 531/2/5 530/2/5 529/2/5
f 531/2/5 529/2/5 528/2/5
f 532/2/5 530/2/5 531/2/5
f 533/2/5 530/2/5 532/2/5
f 534/2/5 530/2/5 533/2/5
f 535/2/5 533/2/5 532/2/5
f 536/2/5 533/2/5 535/2/5
f 537/2/5 533/2/5 536/2/5
f 538/2/5 533/2/5 537/2/5
f 539/2/5 537/2/5 536/2/5
f 540/2/5 537/2/5 539/2/5
f 543/1/5 542/1/5 541/1/5
f 544/1/5 542/1/5 543/1/5
f 547/1/5 546/1/5 545/1/5
f 548/1/5 546/1/5 547/1/5
f 551/1/5 550/1/5 549/1/5
f 553/1/5 551/1/5 549/1/5
f 553/1/5 552/1/5 551/1/5
f 554/1/5 552/1/5 553/1/5
f 555/1/5 552/1/5 554/1/5
f 556/1/5 552/1/5 555/1/5
f 559/2/5 558/2/5 557/2/5
f 560/2/5 558/2/5 559/2/5
f 563/2/5 562/2/5 561/2/5
f 564/2/5 562/2/5 563/2/5
f 565/2/6 566/2/6 568/2/6
f 568/2/6 566/2/6 569/2/6
f 569/2/6 566/2/6 570/2/6
f 570/2/6 566/2/6 571/2/6
f 567/2/6 568/2/6 574/2/6
f 568/2/6 569/2/6 574/2/6
f 570/2/6 571/2/6 575/2/6
f 571/2/6 572/2/6 575/2/6
f 573/2/6 574/2/6 577/2/6
f 574/2/6 569/2/6 577/2/6
f 577/2/6 569/2/6 578/2/6
f 575/2/6 576/2/6 579/2/6
f 570/2/6 575/2/6 579/2/6
f 579/2/6 576/2/6 580/2/6
f 573/2/6 577/2/6 581/2/6
f 580/2/6 576/2/6 584/2/6
f 581/2/6 582/2/6 585/2/6
f 573/2/6 581/2/6 585/2/6
f 585/2/6 582/2/6 586/2/6
f 583/2/6 584/2/6 587/2/6
f 584/2/6 576/2/6 587/2/6
f 587/2/6 576/2/6 588/2/6
f 586/2/6 582/2/6 589/2/6
f 589/2/6 582/2/6 590/2/6
f 590/2/6 582/2/6 591/2/6
f 583/2/6 587/2/6 592/2/6
f 592/2/6 587/2/6 593/2/6
f 593/2/6 587/2/6 594/2/6
f 590/2/6 591/2/6 595/2/6
f 592/2/6 593/2/6 595/2/6
f 591/2/6 592/2/6 595/2/6
f 595/2/6 593/2/6 596/2/6
f 597/2/6 598/2/6 600/2/6
f 600/2/6 598/2/6 601/2/6
f 599/2/6 600/2/6 603/2/6
f 601/2/6 602/2/6 603/2/6
f 600/2/6 601/2/6 603/2/6
f 603/2/6 602/2/6 604/2/6
f 599/2/6 603/2/6 605/2/6
f 605/2/6 603/2/6 606/2/6
f 604/2/6 602/2/6 607/2/6
f 607/2/6 602/2/6 608/2/6
f 599/2/6 605/2/6 609/2/6
f 609/2/6 605/2/6 610/2/6
f 608/2/6 602/2/6 611/2/6
f 611/2/6 602/2/6 612/2/6
f 599/2/6 609/2/6 613/2/6
f 612/2/6 602/2/6 616/2/6
f 613/2/6 614/2/6 617/2/6
f 615/2/6 616/2/6 620/2/6
f 617/2/6 618/2/6 621/2/6
f 619/2/6 620/2/6 622/2/6
f 617/2/6 621/2/6 623/2/6
f 621/2/6 622/2/6 623/2/6
f 599/2/6 613/2/6 623/2/6
f 613/2/6 617/2/6 623/2/6
f 623/2/6 622/2/6 624/2/6
f 622/2/6 620/2/6 625/2/6
f 624/2/6 622/2/6 625/2/6
f 616/2/6 602/2/6 625/2/6
f 620/2/6 616/2/6 625/2/6
f 625/2/6 602/2/6 626/2/6
f 624/2/6 625/2/6 627/2/6
f 627/2/6 625/2/6 628/2/6
f 629/2/6 630/2/6 632/2/6
f 632/2/6 630/2/6 633/2/6
f 631/2/6 632/2/6 635/2/6
f 633/2/6 634/2/6 635/2/6
f 632/2/6 633/2/6 635/2/6
f 635/2/6 634/2/6 636/2/6
f 631/2/6 635/2/6 638/2/6
f 638/2/6 635/2/6 639/2/6
f 639/2/6 635/2/6 640/2/6
f 636/2/6 634/2/6 641/2/6
f 641/2/6 634/2/6 642/2/6
f 642/2/6 634/2/6 643/2/6
f 637/2/6 638/2/6 645/2/6
f 638/2/6 639/2/6 645/2/6
f 645/2/6 639/2/6 646/2/6
f 643/2/6 644/2/6 647/2/6
f 642/2/6 643/2/6 647/2/6
f 647/2/6 644/2/6 648/2/6
f 637/2/6 645/2/6 649/2/6
f 648/2/6 644/2/6 652/2/6
f 649/2/6 650/2/6 653/2/6
f 637/2/6 649/2/6 653/2/6
f 653/2/6 650/2/6 654/2/6
f 654/2/6 650/2/6 655/2/6
f 651/2/6 652/2/6 658/2/6
f 652/2/6 644/2/6 659/2/6
f 658/2/6 652/2/6 659/2/6
f 659/2/6 644/2/6 660/2/6
f 655/2/6 656/2/6 661/2/6
f 654/2/6 655/2/6 661/2/6
f 657/2/6 658/2/6 662/2/6
f 658/2/6 659/2/6 662/2/6
f 654/2/6 661/2/6 663/2/6
f 661/2/6 662/2/6 663/2/6
f 663/2/6 662/2/6 664/2/6
f 662/2/6 659/2/6 665/2/6
f 664/2/6 662/2/6 665/2/6
f 665/2/6 659/2/6 666/2/6
f 664/2/6 665/2/6 667/2/6
f 667/2/6 665/2/6 668/2/6
f 669/2/6 670/2/6 672/2/6
f 672/2/6 670/2/6 673/2/6
f 673/2/6 670/2/6 674/2/6
f 674/2/6 670/2/6 675/2/6
f 671/2/6 672/2/6 678/2/6
f 672/2/6 673/2/6 678/2/6
f 678/2/6 673/2/6 679/2/6
f 679/2/6 673/2/6 680/2/6
f 674/2/6 675/2/6 681/2/6
f 675/2/6 676/2/6 681/2/6
f 681/2/6 676/2/6 682/2/6
f 682/2/6 676/2/6 683/2/6
f 678/2/6 679/2/6 685/2/6
f 677/2/6 678/2/6 685/2/6
f 685/2/6 679/2/6 686/2/6
f 683/2/6 684/2/6 687/2/6
f 682/2/6 683/2/6 687/2/6
f 687/2/6 684/2/6 688/2/6
f 677/2/6 685/2/6 689/2/6
f 688/2/6 684/2/6 692/2/6
f 689/2/6 690/2/6 693/2/6
f 677/2/6 689/2/6 693/2/6
f 693/2/6 690/2/6 694/2/6
f 694/2/6 690/2/6 695/2/6
f 691/2/6 692/2/6 698/2/6
f 692/2/6 684/2/6 699/2/6
f 698/2/6 692/2/6 699/2/6
f 699/2/6 684/2/6 700/2/6
f 695/2/6 696/2/6 701/2/6
f 694/2/6 695/2/6 701/2/6
f 701/2/6 696/2/6 702/2/6
f 702/2/6 696/2/6 703/2/6
f 697/2/6 698/2/6 704/2/6
f 698/2/6 699/2/6 704/2/6
f 704/2/6 699/2/6 705/2/6
f 705/2/6 699/2/6 706/2/6
f 702/2/6 703/2/6 707/2/6
f 704/2/6 705/2/6 707/2/6
f 703/2/6 704/2/6 707/2/6
f 707/2/6 705/2/6 708/2/6
f 709/2/6 710/2/6 712/2/6
f 712/2/6 710/2/6 713/2/6
f 711/2/6 712/2/6 716/2/6
f 713/2/6 714/2/6 716/2/6
f 712/2/6 713/2/6 716/2/6
f 716/2/6 714/2/6 717/2/6
f 717/2/6 714/2/6 718/2/6
f 718/2/6 714/2/6 719/2/6
f 715/2/6 716/2/6 721/2/6
f 716/2/6 717/2/6 721/2/6
f 721/2/6 717/2/6 722/2/6
f 722/2/6 717/2/6 723/2/6
f 719/2/6 720/2/6 724/2/6
f 718/2/6 719/2/6 724/2/6
f 724/2/6 720/2/6 725/2/6
f 725/2/6 720/2/6 726/2/6
f 722/2/6 723/2/6 727/2/6
f 724/2/6 725/2/6 727/2/6
f 723/2/6 724/2/6 727/2/6
f 727/2/6 725/2/6 728/2/6
f 728/2/6 725/2/6 729/2/6
f 729/2/6 725/2/6 730/2/6
f 728/2/6 729/2/6 731/2/6
f 731/2/6 729/2/6 732/2/6
f 733/1/6 734/1/6 735/1/6
f 735/1/6 734/1/6 736/1/6
f 737/1/6 738/1/6 739/1/6
f 739/1/6 738/1/6 740/1/6
f 741/2/6 742/2/6 743/2/6
f 743/2/6 742/2/6 744/2/6
f 745/1/6 746/1/6 747/1/6
f 747/1/6 746/1/6 748/1/6
f 749/1/6 750/1/6 751/1/6
f 751/1/6 750/1/6 752/1/6
f 753/1/6 754/1/6 755/1/6
f 755/1/6 754/1/6 756/1/6
f 757/1/6 758/1/6 759/1/6
f 759/1/6 758/1/6 760/1/6
f 761/2/6 762/2/6 763/2/6
f 763/2/6 762/2/6 764/2/6
f 765/1/6 766/1/6 767/1/6
f 767/1/6 766/1/6 768/1/6
f 769/1/6 770/1/6 771/1/6
f 769/1/6 771/1/6 773/1/6
f 771/1/6 772/1/6 773/1/6
f 773/1/6 772/1/6 774/1/6
f 774/1/6 772/1/6 775/1/6
f 775/1/6 772/1/6 776/1/6
f 777/2/6 778/2/6 779/2/6
f 779/2/6 778/2/6 780/2/6
