# MagicaVoxel @ Ephtracy

# group
o 

# material
mtllib NeonLightTankPlayer-0.mtl
usemtl palette

# normals
vn -1 0 0
vn 1 0 0
vn 0 0 1
vn 0 0 -1
vn 0 -1 0
vn 0 1 0

# texcoords
vt 0.443359 0.5
vt 0.955078 0.5
vt 0.994141 0.5

# verts
v -10.2 0.8 0.8
v -10.2 0.8 -0.4
v -10.2 1.5 0.8
v -10.2 1.5 -0.4
v -10.1 0.6 0.8
v -10.1 0.6 -0.4
v -10.1 0.8 0.8
v -10.1 0.8 -0.4
v -10.1 1.5 0.8
v -10.1 1.5 -0.4
v -10.1 1.7 0.8
v -10.1 1.7 -0.4
v -10 0.4 0.8
v -10 0.4 -0.4
v -10 0.6 0.8
v -10 0.6 -0.4
v -10 1.7 0.8
v -10 1.7 -0.4
v -10 1.9 0.8
v -10 1.9 -0.4
v -9.9 0.3 0.8
v -9.9 0.3 -0.4
v -9.9 0.4 0.8
v -9.9 0.4 -0.4
v -9.9 1.9 0.8
v -9.9 1.9 -0.4
v -9.9 2 0.8
v -9.9 2 -0.4
v -9.8 0.2 0.8
v -9.8 0.2 -0.4
v -9.8 0.3 0.8
v -9.8 0.3 -0.4
v -9.8 2 0.8
v -9.8 2 -0.4
v -9.8 2.1 0.8
v -9.8 2.1 -0.4
v -9.6 0.1 0.8
v -9.6 0.1 -0.4
v -9.6 0.2 0.8
v -9.6 0.2 -0.4
v -9.6 2.1 0.8
v -9.6 2.1 -0.4
v -9.6 2.2 0.8
v -9.6 2.2 -0.4
v -9.4 0 0.8
v -9.4 0 -0.4
v -9.4 0.1 0.8
v -9.4 0.1 -0.4
v -9.4 2.2 0.8
v -9.4 2.2 -0.4
v -9.4 2.3 0.8
v -9.4 2.3 -0.4
v -9.3 1 0.4
v -9.3 1 0.3
v -9.3 1.3 0.4
v -9.3 1.3 0.3
v -9.2 0.9 0.4
v -9.2 0.9 0.3
v -9.2 1 0.5
v -9.2 1 0.4
v -9.2 1 0.3
v -9.2 1.3 0.5
v -9.2 1.3 0.4
v -9.2 1.3 0.3
v -9.2 1.4 0.4
v -9.2 1.4 0.3
v -8.8 0.6 0.8
v -8.8 0.6 0.3
v -8.8 0.7 0.8
v -8.8 0.7 0.3
v -8.8 1.6 0.8
v -8.8 1.6 0.3
v -8.8 1.7 0.8
v -8.8 1.7 0.3
v -8.7 0.7 0.8
v -8.7 0.7 0.3
v -8.7 0.8 0.8
v -8.7 0.8 0.3
v -8.7 1.5 0.8
v -8.7 1.5 0.3
v -8.7 1.6 0.8
v -8.7 1.6 0.3
v -8.6 0.8 0.8
v -8.6 0.8 0.3
v -8.6 0.9 0.8
v -8.6 0.9 0.3
v -8.6 1.4 0.8
v -8.6 1.4 0.3
v -8.6 1.5 0.8
v -8.6 1.5 0.3
v -8.5 0.9 0.8
v -8.5 0.9 0.3
v -8.5 1.4 0.8
v -8.5 1.4 0.3
v -9.6 0.9 0.8
v -9.6 0.9 0.3
v -9.6 1.4 0.8
v -9.6 1.4 0.3
v -9.5 0.8 0.8
v -9.5 0.8 0.3
v -9.5 0.9 0.8
v -9.5 0.9 0.3
v -9.5 1.4 0.8
v -9.5 1.4 0.3
v -9.5 1.5 0.8
v -9.5 1.5 0.3
v -9.4 0.7 0.8
v -9.4 0.7 0.3
v -9.4 0.8 0.8
v -9.4 0.8 0.3
v -9.4 1.5 0.8
v -9.4 1.5 0.3
v -9.4 1.6 0.8
v -9.4 1.6 0.3
v -9.3 0.6 0.8
v -9.3 0.6 0.3
v -9.3 0.7 0.8
v -9.3 0.7 0.3
v -9.3 1.6 0.8
v -9.3 1.6 0.3
v -9.3 1.7 0.8
v -9.3 1.7 0.3
v -8.9 0.9 0.4
v -8.9 0.9 0.3
v -8.9 1 0.5
v -8.9 1 0.4
v -8.9 1 0.3
v -8.9 1.3 0.5
v -8.9 1.3 0.4
v -8.9 1.3 0.3
v -8.9 1.4 0.4
v -8.9 1.4 0.3
v -8.8 1 0.4
v -8.8 1 0.3
v -8.8 1.3 0.4
v -8.8 1.3 0.3
v -8.7 0 0.8
v -8.7 0 -0.4
v -8.7 0.1 0.8
v -8.7 0.1 -0.4
v -8.7 2.2 0.8
v -8.7 2.2 -0.4
v -8.7 2.3 0.8
v -8.7 2.3 -0.4
v -8.5 0.1 0.8
v -8.5 0.1 -0.4
v -8.5 0.2 0.8
v -8.5 0.2 -0.4
v -8.5 2.1 0.8
v -8.5 2.1 -0.4
v -8.5 2.2 0.8
v -8.5 2.2 -0.4
v -8.3 0.2 0.8
v -8.3 0.2 -0.4
v -8.3 0.3 0.8
v -8.3 0.3 -0.4
v -8.3 2 0.8
v -8.3 2 -0.4
v -8.3 2.1 0.8
v -8.3 2.1 -0.4
v -8.2 0.3 0.8
v -8.2 0.3 -0.4
v -8.2 0.4 0.8
v -8.2 0.4 -0.4
v -8.2 1.9 0.8
v -8.2 1.9 -0.4
v -8.2 2 0.8
v -8.2 2 -0.4
v -8.1 0.4 0.8
v -8.1 0.4 -0.4
v -8.1 0.6 0.8
v -8.1 0.6 -0.4
v -8.1 1.7 0.8
v -8.1 1.7 -0.4
v -8.1 1.9 0.8
v -8.1 1.9 -0.4
v -8 0.6 0.8
v -8 0.6 -0.4
v -8 0.8 0.8
v -8 0.8 -0.4
v -8 1.5 0.8
v -8 1.5 -0.4
v -8 1.7 0.8
v -8 1.7 -0.4
v -7.9 0.8 0.8
v -7.9 0.8 -0.4
v -7.9 1.5 0.8
v -7.9 1.5 -0.4
v -10.2 0.8 0.8
v -10.2 1.5 0.8
v -10.1 0.6 0.8
v -10.1 0.8 0.8
v -10.1 1.5 0.8
v -10.1 1.7 0.8
v -10 0.4 0.8
v -10 0.6 0.8
v -10 1.7 0.8
v -10 1.9 0.8
v -9.9 0.3 0.8
v -9.9 0.4 0.8
v -9.9 1.9 0.8
v -9.9 2 0.8
v -9.8 0.2 0.8
v -9.8 0.3 0.8
v -9.8 2 0.8
v -9.8 2.1 0.8
v -9.7 0.9 0.8
v -9.7 1.4 0.8
v -9.6 0.1 0.8
v -9.6 0.2 0.8
v -9.6 0.8 0.8
v -9.6 0.9 0.8
v -9.6 1.4 0.8
v -9.6 1.5 0.8
v -9.6 2.1 0.8
v -9.6 2.2 0.8
v -9.5 0.7 0.8
v -9.5 0.8 0.8
v -9.5 0.9 0.8
v -9.5 1.4 0.8
v -9.5 1.5 0.8
v -9.5 1.6 0.8
v -9.4 0 0.8
v -9.4 0.1 0.8
v -9.4 0.6 0.8
v -9.4 0.7 0.8
v -9.4 0.8 0.8
v -9.4 1.5 0.8
v -9.4 1.6 0.8
v -9.4 1.7 0.8
v -9.4 2.2 0.8
v -9.4 2.3 0.8
v -9.3 0.5 0.8
v -9.3 0.6 0.8
v -9.3 0.7 0.8
v -9.3 1.6 0.8
v -9.3 1.7 0.8
v -9.3 1.8 0.8
v -8.8 0.5 0.8
v -8.8 0.6 0.8
v -8.8 0.7 0.8
v -8.8 1.6 0.8
v -8.8 1.7 0.8
v -8.8 1.8 0.8
v -8.7 0 0.8
v -8.7 0.1 0.8
v -8.7 0.6 0.8
v -8.7 0.7 0.8
v -8.7 0.8 0.8
v -8.7 1.5 0.8
v -8.7 1.6 0.8
v -8.7 1.7 0.8
v -8.7 2.2 0.8
v -8.7 2.3 0.8
v -8.6 0.7 0.8
v -8.6 0.8 0.8
v -8.6 0.9 0.8
v -8.6 1.4 0.8
v -8.6 1.5 0.8
v -8.6 1.6 0.8
v -8.5 0.1 0.8
v -8.5 0.2 0.8
v -8.5 0.8 0.8
v -8.5 0.9 0.8
v -8.5 1.4 0.8
v -8.5 1.5 0.8
v -8.5 2.1 0.8
v -8.5 2.2 0.8
v -8.4 0.9 0.8
v -8.4 1.4 0.8
v -8.3 0.2 0.8
v -8.3 0.3 0.8
v -8.3 2 0.8
v -8.3 2.1 0.8
v -8.2 0.3 0.8
v -8.2 0.4 0.8
v -8.2 1.9 0.8
v -8.2 2 0.8
v -8.1 0.4 0.8
v -8.1 0.6 0.8
v -8.1 1.7 0.8
v -8.1 1.9 0.8
v -8 0.6 0.8
v -8 0.8 0.8
v -8 1.5 0.8
v -8 1.7 0.8
v -7.9 0.8 0.8
v -7.9 1.5 0.8
v -9.2 1 0.5
v -9.2 1.3 0.5
v -8.9 1 0.5
v -8.9 1.3 0.5
v -9.3 1 0.4
v -9.3 1.3 0.4
v -9.2 0.9 0.4
v -9.2 1 0.4
v -9.2 1.3 0.4
v -9.2 1.4 0.4
v -8.9 0.9 0.4
v -8.9 1 0.4
v -8.9 1.3 0.4
v -8.9 1.4 0.4
v -8.8 1 0.4
v -8.8 1.3 0.4
v -9.6 0.9 0.3
v -9.6 1.4 0.3
v -9.5 0.8 0.3
v -9.5 0.9 0.3
v -9.5 1.4 0.3
v -9.5 1.5 0.3
v -9.4 0.7 0.3
v -9.4 0.8 0.3
v -9.4 1.5 0.3
v -9.4 1.6 0.3
v -9.3 0.6 0.3
v -9.3 0.7 0.3
v -9.3 1 0.3
v -9.3 1.3 0.3
v -9.3 1.6 0.3
v -9.3 1.7 0.3
v -9.2 0.9 0.3
v -9.2 1 0.3
v -9.2 1.3 0.3
v -9.2 1.4 0.3
v -8.9 0.9 0.3
v -8.9 1 0.3
v -8.9 1.3 0.3
v -8.9 1.4 0.3
v -8.8 0.6 0.3
v -8.8 0.7 0.3
v -8.8 1 0.3
v -8.8 1.3 0.3
v -8.8 1.6 0.3
v -8.8 1.7 0.3
v -8.7 0.7 0.3
v -8.7 0.8 0.3
v -8.7 1.5 0.3
v -8.7 1.6 0.3
v -8.6 0.8 0.3
v -8.6 0.9 0.3
v -8.6 1.4 0.3
v -8.6 1.5 0.3
v -8.5 0.9 0.3
v -8.5 1.4 0.3
v -10.2 0.8 -0.4
v -10.2 1.5 -0.4
v -10.1 0.6 -0.4
v -10.1 0.8 -0.4
v -10.1 1.5 -0.4
v -10.1 1.7 -0.4
v -10 0.4 -0.4
v -10 0.6 -0.4
v -10 1.7 -0.4
v -10 1.9 -0.4
v -9.9 0.3 -0.4
v -9.9 0.4 -0.4
v -9.9 1.9 -0.4
v -9.9 2 -0.4
v -9.8 0.2 -0.4
v -9.8 0.3 -0.4
v -9.8 2 -0.4
v -9.8 2.1 -0.4
v -9.6 0.1 -0.4
v -9.6 0.2 -0.4
v -9.6 2.1 -0.4
v -9.6 2.2 -0.4
v -9.4 0 -0.4
v -9.4 0.1 -0.4
v -9.4 2.2 -0.4
v -9.4 2.3 -0.4
v -8.7 0 -0.4
v -8.7 0.1 -0.4
v -8.7 2.2 -0.4
v -8.7 2.3 -0.4
v -8.5 0.1 -0.4
v -8.5 0.2 -0.4
v -8.5 2.1 -0.4
v -8.5 2.2 -0.4
v -8.3 0.2 -0.4
v -8.3 0.3 -0.4
v -8.3 2 -0.4
v -8.3 2.1 -0.4
v -8.2 0.3 -0.4
v -8.2 0.4 -0.4
v -8.2 1.9 -0.4
v -8.2 2 -0.4
v -8.1 0.4 -0.4
v -8.1 0.6 -0.4
v -8.1 1.7 -0.4
v -8.1 1.9 -0.4
v -8 0.6 -0.4
v -8 0.8 -0.4
v -8 1.5 -0.4
v -8 1.7 -0.4
v -7.9 0.8 -0.4
v -7.9 1.5 -0.4
v -9.4 0 0.8
v -8.7 0 0.8
v -9.4 0 -0.4
v -8.7 0 -0.4
v -9.6 0.1 0.8
v -9.4 0.1 0.8
v -8.7 0.1 0.8
v -8.5 0.1 0.8
v -9.6 0.1 -0.4
v -9.4 0.1 -0.4
v -8.7 0.1 -0.4
v -8.5 0.1 -0.4
v -9.8 0.2 0.8
v -9.6 0.2 0.8
v -8.5 0.2 0.8
v -8.3 0.2 0.8
v -9.8 0.2 -0.4
v -9.6 0.2 -0.4
v -8.5 0.2 -0.4
v -8.3 0.2 -0.4
v -9.9 0.3 0.8
v -9.8 0.3 0.8
v -8.3 0.3 0.8
v -8.2 0.3 0.8
v -9.9 0.3 -0.4
v -9.8 0.3 -0.4
v -8.3 0.3 -0.4
v -8.2 0.3 -0.4
v -10 0.4 0.8
v -9.9 0.4 0.8
v -8.2 0.4 0.8
v -8.1 0.4 0.8
v -10 0.4 -0.4
v -9.9 0.4 -0.4
v -8.2 0.4 -0.4
v -8.1 0.4 -0.4
v -10.1 0.6 0.8
v -10 0.6 0.8
v -8.1 0.6 0.8
v -8 0.6 0.8
v -10.1 0.6 -0.4
v -10 0.6 -0.4
v -8.1 0.6 -0.4
v -8 0.6 -0.4
v -10.2 0.8 0.8
v -10.1 0.8 0.8
v -8 0.8 0.8
v -7.9 0.8 0.8
v -10.2 0.8 -0.4
v -10.1 0.8 -0.4
v -8 0.8 -0.4
v -7.9 0.8 -0.4
v -9.2 0.9 0.4
v -8.9 0.9 0.4
v -9.2 0.9 0.3
v -8.9 0.9 0.3
v -9.2 1 0.5
v -8.9 1 0.5
v -9.3 1 0.4
v -9.2 1 0.4
v -8.9 1 0.4
v -8.8 1 0.4
v -9.3 1 0.3
v -9.2 1 0.3
v -8.9 1 0.3
v -8.8 1 0.3
v -9.6 1.4 0.8
v -9.5 1.4 0.8
v -8.6 1.4 0.8
v -8.5 1.4 0.8
v -9.6 1.4 0.3
v -9.5 1.4 0.3
v -8.6 1.4 0.3
v -8.5 1.4 0.3
v -9.5 1.5 0.8
v -9.4 1.5 0.8
v -8.7 1.5 0.8
v -8.6 1.5 0.8
v -9.5 1.5 0.3
v -9.4 1.5 0.3
v -8.7 1.5 0.3
v -8.6 1.5 0.3
v -9.4 1.6 0.8
v -9.3 1.6 0.8
v -8.8 1.6 0.8
v -8.7 1.6 0.8
v -9.4 1.6 0.3
v -9.3 1.6 0.3
v -8.8 1.6 0.3
v -8.7 1.6 0.3
v -9.3 1.7 0.8
v -8.8 1.7 0.8
v -9.3 1.7 0.3
v -8.8 1.7 0.3
v -9.3 0.6 0.8
v -8.8 0.6 0.8
v -9.3 0.6 0.3
v -8.8 0.6 0.3
v -9.4 0.7 0.8
v -9.3 0.7 0.8
v -8.8 0.7 0.8
v -8.7 0.7 0.8
v -9.4 0.7 0.3
v -9.3 0.7 0.3
v -8.8 0.7 0.3
v -8.7 0.7 0.3
v -9.5 0.8 0.8
v -9.4 0.8 0.8
v -8.7 0.8 0.8
v -8.6 0.8 0.8
v -9.5 0.8 0.3
v -9.4 0.8 0.3
v -8.7 0.8 0.3
v -8.6 0.8 0.3
v -9.6 0.9 0.8
v -9.5 0.9 0.8
v -8.6 0.9 0.8
v -8.5 0.9 0.8
v -9.6 0.9 0.3
v -9.5 0.9 0.3
v -8.6 0.9 0.3
v -8.5 0.9 0.3
v -9.2 1.3 0.5
v -8.9 1.3 0.5
v -9.3 1.3 0.4
v -9.2 1.3 0.4
v -8.9 1.3 0.4
v -8.8 1.3 0.4
v -9.3 1.3 0.3
v -9.2 1.3 0.3
v -8.9 1.3 0.3
v -8.8 1.3 0.3
v -9.2 1.4 0.4
v -8.9 1.4 0.4
v -9.2 1.4 0.3
v -8.9 1.4 0.3
v -10.2 1.5 0.8
v -10.1 1.5 0.8
v -8 1.5 0.8
v -7.9 1.5 0.8
v -10.2 1.5 -0.4
v -10.1 1.5 -0.4
v -8 1.5 -0.4
v -7.9 1.5 -0.4
v -10.1 1.7 0.8
v -10 1.7 0.8
v -8.1 1.7 0.8
v -8 1.7 0.8
v -10.1 1.7 -0.4
v -10 1.7 -0.4
v -8.1 1.7 -0.4
v -8 1.7 -0.4
v -10 1.9 0.8
v -9.9 1.9 0.8
v -8.2 1.9 0.8
v -8.1 1.9 0.8
v -10 1.9 -0.4
v -9.9 1.9 -0.4
v -8.2 1.9 -0.4
v -8.1 1.9 -0.4
v -9.9 2 0.8
v -9.8 2 0.8
v -8.3 2 0.8
v -8.2 2 0.8
v -9.9 2 -0.4
v -9.8 2 -0.4
v -8.3 2 -0.4
v -8.2 2 -0.4
v -9.8 2.1 0.8
v -9.6 2.1 0.8
v -8.5 2.1 0.8
v -8.3 2.1 0.8
v -9.8 2.1 -0.4
v -9.6 2.1 -0.4
v -8.5 2.1 -0.4
v -8.3 2.1 -0.4
v -9.6 2.2 0.8
v -9.4 2.2 0.8
v -8.7 2.2 0.8
v -8.5 2.2 0.8
v -9.6 2.2 -0.4
v -9.4 2.2 -0.4
v -8.7 2.2 -0.4
v -8.5 2.2 -0.4
v -9.4 2.3 0.8
v -8.7 2.3 0.8
v -9.4 2.3 -0.4
v -8.7 2.3 -0.4

# faces
f 3/3/1 2/3/1 1/3/1
f 4/3/1 2/3/1 3/3/1
f 7/3/1 6/3/1 5/3/1
f 8/3/1 6/3/1 7/3/1
f 11/3/1 10/3/1 9/3/1
f 12/3/1 10/3/1 11/3/1
f 15/3/1 14/3/1 13/3/1
f 16/3/1 14/3/1 15/3/1
f 19/3/1 18/3/1 17/3/1
f 20/3/1 18/3/1 19/3/1
f 23/3/1 22/3/1 21/3/1
f 24/3/1 22/3/1 23/3/1
f 27/3/1 26/3/1 25/3/1
f 28/3/1 26/3/1 27/3/1
f 31/3/1 30/3/1 29/3/1
f 32/3/1 30/3/1 31/3/1
f 35/3/1 34/3/1 33/3/1
f 36/3/1 34/3/1 35/3/1
f 39/3/1 38/3/1 37/3/1
f 40/3/1 38/3/1 39/3/1
f 43/3/1 42/3/1 41/3/1
f 44/3/1 42/3/1 43/3/1
f 47/3/1 46/3/1 45/3/1
f 48/3/1 46/3/1 47/3/1
f 51/3/1 50/3/1 49/3/1
f 52/3/1 50/3/1 51/3/1
f 55/1/1 54/1/1 53/1/1
f 56/1/1 54/1/1 55/1/1
f 60/1/1 58/1/1 57/1/1
f 61/1/1 58/1/1 60/1/1
f 62/1/1 60/1/1 59/1/1
f 63/1/1 60/1/1 62/1/1
f 65/1/1 64/1/1 63/1/1
f 66/1/1 64/1/1 65/1/1
f 69/1/1 68/1/1 67/1/1
f 70/1/1 68/1/1 69/1/1
f 73/1/1 72/1/1 71/1/1
f 74/1/1 72/1/1 73/1/1
f 77/1/1 76/1/1 75/1/1
f 78/1/1 76/1/1 77/1/1
f 81/1/1 80/1/1 79/1/1
f 82/1/1 80/1/1 81/1/1
f 85/1/1 84/1/1 83/1/1
f 86/1/1 84/1/1 85/1/1
f 89/1/1 88/1/1 87/1/1
f 90/1/1 88/1/1 89/1/1
f 93/1/1 92/1/1 91/1/1
f 94/1/1 92/1/1 93/1/1
f 95/1/2 96/1/2 97/1/2
f 97/1/2 96/1/2 98/1/2
f 99/1/2 100/1/2 101/1/2
f 101/1/2 100/1/2 102/1/2
f 103/1/2 104/1/2 105/1/2
f 105/1/2 104/1/2 106/1/2
f 107/1/2 108/1/2 109/1/2
f 109/1/2 108/1/2 110/1/2
f 111/1/2 112/1/2 113/1/2
f 113/1/2 112/1/2 114/1/2
f 115/1/2 116/1/2 117/1/2
f 117/1/2 116/1/2 118/1/2
f 119/1/2 120/1/2 121/1/2
f 121/1/2 120/1/2 122/1/2
f 123/1/2 124/1/2 126/1/2
f 126/1/2 124/1/2 127/1/2
f 125/1/2 126/1/2 128/1/2
f 128/1/2 126/1/2 129/1/2
f 129/1/2 130/1/2 131/1/2
f 131/1/2 130/1/2 132/1/2
f 133/1/2 134/1/2 135/1/2
f 135/1/2 134/1/2 136/1/2
f 137/3/2 138/3/2 139/3/2
f 139/3/2 138/3/2 140/3/2
f 141/3/2 142/3/2 143/3/2
f 143/3/2 142/3/2 144/3/2
f 145/3/2 146/3/2 147/3/2
f 147/3/2 146/3/2 148/3/2
f 149/3/2 150/3/2 151/3/2
f 151/3/2 150/3/2 152/3/2
f 153/3/2 154/3/2 155/3/2
f 155/3/2 154/3/2 156/3/2
f 157/3/2 158/3/2 159/3/2
f 159/3/2 158/3/2 160/3/2
f 161/3/2 162/3/2 163/3/2
f 163/3/2 162/3/2 164/3/2
f 165/3/2 166/3/2 167/3/2
f 167/3/2 166/3/2 168/3/2
f 169/3/2 170/3/2 171/3/2
f 171/3/2 170/3/2 172/3/2
f 173/3/2 174/3/2 175/3/2
f 175/3/2 174/3/2 176/3/2
f 177/3/2 178/3/2 179/3/2
f 179/3/2 178/3/2 180/3/2
f 181/3/2 182/3/2 183/3/2
f 183/3/2 182/3/2 184/3/2
f 185/3/2 186/3/2 187/3/2
f 187/3/2 186/3/2 188/3/2
f 192/3/3 190/3/3 189/3/3
f 193/3/3 190/3/3 192/3/3
f 196/3/3 192/3/3 191/3/3
f 196/3/3 194/3/3 193/3/3
f 196/3/3 193/3/3 192/3/3
f 197/3/3 194/3/3 196/3/3
f 200/3/3 196/3/3 195/3/3
f 200/3/3 198/3/3 197/3/3
f 200/3/3 197/3/3 196/3/3
f 201/3/3 198/3/3 200/3/3
f 204/3/3 200/3/3 199/3/3
f 204/3/3 202/3/3 201/3/3
f 204/3/3 201/3/3 200/3/3
f 205/3/3 202/3/3 204/3/3
f 207/3/3 204/3/3 203/3/3
f 207/3/3 206/3/3 205/3/3
f 207/3/3 205/3/3 204/3/3
f 208/3/3 206/3/3 207/3/3
f 210/3/3 207/3/3 203/3/3
f 211/3/3 207/3/3 210/3/3
f 212/1/3 208/1/3 207/1/3
f 212/3/3 207/3/3 211/3/3
f 213/3/3 206/3/3 208/3/3
f 213/1/3 208/1/3 212/1/3
f 214/3/3 206/3/3 213/3/3
f 215/3/3 206/3/3 214/3/3
f 217/3/3 211/3/3 210/3/3
f 217/3/3 210/3/3 209/3/3
f 218/1/3 212/1/3 211/1/3
f 218/3/3 211/3/3 217/3/3
f 219/1/3 212/1/3 218/1/3
f 220/1/3 214/1/3 213/1/3
f 221/3/3 216/3/3 215/3/3
f 221/1/3 214/1/3 220/1/3
f 221/3/3 215/3/3 214/3/3
f 222/3/3 216/3/3 221/3/3
f 224/3/3 217/3/3 209/3/3
f 225/3/3 217/3/3 224/3/3
f 226/1/3 218/1/3 217/1/3
f 226/3/3 217/3/3 225/3/3
f 227/1/3 218/1/3 226/1/3
f 228/1/3 222/1/3 221/1/3
f 229/3/3 216/3/3 222/3/3
f 229/1/3 222/1/3 228/1/3
f 230/3/3 216/3/3 229/3/3
f 231/3/3 216/3/3 230/3/3
f 233/3/3 225/3/3 224/3/3
f 233/3/3 224/3/3 223/3/3
f 234/1/3 226/1/3 225/1/3
f 234/3/3 225/3/3 233/3/3
f 235/1/3 226/1/3 234/1/3
f 236/1/3 230/1/3 229/1/3
f 237/3/3 232/3/3 231/3/3
f 237/1/3 230/1/3 236/1/3
f 237/3/3 231/3/3 230/3/3
f 238/3/3 232/3/3 237/3/3
f 239/1/3 234/1/3 233/1/3
f 239/3/3 233/3/3 223/3/3
f 240/1/3 234/1/3 239/1/3
f 243/1/3 238/1/3 237/1/3
f 244/3/3 232/3/3 238/3/3
f 244/1/3 238/1/3 243/1/3
f 245/3/3 239/3/3 223/3/3
f 245/3/3 240/3/3 239/3/3
f 246/3/3 240/3/3 245/3/3
f 247/1/3 241/1/3 240/1/3
f 247/3/3 240/3/3 246/3/3
f 248/1/3 241/1/3 247/1/3
f 251/1/3 243/1/3 242/1/3
f 252/3/3 244/3/3 243/3/3
f 252/1/3 243/1/3 251/1/3
f 253/3/3 232/3/3 244/3/3
f 253/3/3 244/3/3 252/3/3
f 254/3/3 232/3/3 253/3/3
f 255/1/3 249/1/3 248/1/3
f 255/3/3 247/3/3 246/3/3
f 255/3/3 248/3/3 247/3/3
f 256/1/3 249/1/3 255/1/3
f 259/1/3 251/1/3 250/1/3
f 260/3/3 253/3/3 252/3/3
f 260/3/3 252/3/3 251/3/3
f 260/1/3 251/1/3 259/1/3
f 261/3/3 255/3/3 246/3/3
f 261/3/3 256/3/3 255/3/3
f 262/3/3 256/3/3 261/3/3
f 263/1/3 257/1/3 256/1/3
f 263/3/3 256/3/3 262/3/3
f 264/1/3 257/1/3 263/1/3
f 265/1/3 259/1/3 258/1/3
f 266/3/3 260/3/3 259/3/3
f 266/1/3 259/1/3 265/1/3
f 267/3/3 253/3/3 260/3/3
f 267/3/3 260/3/3 266/3/3
f 268/3/3 253/3/3 267/3/3
f 269/3/3 264/3/3 263/3/3
f 269/1/3 265/1/3 264/1/3
f 269/3/3 263/3/3 262/3/3
f 270/3/3 267/3/3 266/3/3
f 270/1/3 265/1/3 269/1/3
f 270/3/3 266/3/3 265/3/3
f 271/3/3 269/3/3 262/3/3
f 271/3/3 270/3/3 269/3/3
f 272/3/3 270/3/3 271/3/3
f 273/3/3 267/3/3 270/3/3
f 273/3/3 270/3/3 272/3/3
f 274/3/3 267/3/3 273/3/3
f 275/3/3 273/3/3 272/3/3
f 276/3/3 273/3/3 275/3/3
f 277/3/3 273/3/3 276/3/3
f 278/3/3 273/3/3 277/3/3
f 279/3/3 277/3/3 276/3/3
f 280/3/3 277/3/3 279/3/3
f 281/3/3 277/3/3 280/3/3
f 282/3/3 277/3/3 281/3/3
f 283/3/3 281/3/3 280/3/3
f 284/3/3 281/3/3 283/3/3
f 285/3/3 281/3/3 284/3/3
f 286/3/3 281/3/3 285/3/3
f 287/3/3 285/3/3 284/3/3
f 288/3/3 285/3/3 287/3/3
f 291/1/3 290/1/3 289/1/3
f 292/1/3 290/1/3 291/1/3
f 296/1/3 294/1/3 293/1/3
f 297/1/3 294/1/3 296/1/3
f 299/1/3 296/1/3 295/1/3
f 300/1/3 296/1/3 299/1/3
f 301/1/3 298/1/3 297/1/3
f 302/1/3 298/1/3 301/1/3
f 303/1/3 301/1/3 300/1/3
f 304/1/3 301/1/3 303/1/3
f 308/2/3 306/2/3 305/2/3
f 309/2/3 306/2/3 308/2/3
f 312/2/3 308/2/3 307/2/3
f 312/2/3 310/2/3 309/2/3
f 312/2/3 309/2/3 308/2/3
f 313/2/3 310/2/3 312/2/3
f 316/2/3 312/2/3 311/2/3
f 316/2/3 314/2/3 313/2/3
f 316/2/3 313/2/3 312/2/3
f 317/2/3 314/2/3 316/2/3
f 318/2/3 314/2/3 317/2/3
f 319/2/3 314/2/3 318/2/3
f 321/2/3 316/2/3 315/2/3
f 321/2/3 317/2/3 316/2/3
f 322/2/3 317/2/3 321/2/3
f 323/2/3 320/2/3 319/2/3
f 323/2/3 319/2/3 318/2/3
f 324/2/3 320/2/3 323/2/3
f 325/2/3 321/2/3 315/2/3
f 328/2/3 320/2/3 324/2/3
f 329/2/3 326/2/3 325/2/3
f 329/2/3 325/2/3 315/2/3
f 330/2/3 326/2/3 329/2/3
f 331/2/3 326/2/3 330/2/3
f 332/2/3 328/2/3 327/2/3
f 333/2/3 320/2/3 328/2/3
f 333/2/3 328/2/3 332/2/3
f 334/2/3 320/2/3 333/2/3
f 335/2/3 331/2/3 330/2/3
f 335/2/3 332/2/3 331/2/3
f 335/2/3 333/2/3 332/2/3
f 336/2/3 333/2/3 335/2/3
f 337/2/3 333/2/3 336/2/3
f 338/2/3 333/2/3 337/2/3
f 339/2/3 337/2/3 336/2/3
f 340/2/3 337/2/3 339/2/3
f 341/2/3 337/2/3 340/2/3
f 342/2/3 337/2/3 341/2/3
f 343/2/3 341/2/3 340/2/3
f 344/2/3 341/2/3 343/2/3
f 345/3/4 346/3/4 348/3/4
f 348/3/4 346/3/4 349/3/4
f 347/3/4 348/3/4 352/3/4
f 349/3/4 350/3/4 352/3/4
f 348/3/4 349/3/4 352/3/4
f 352/3/4 350/3/4 353/3/4
f 351/3/4 352/3/4 356/3/4
f 353/3/4 354/3/4 356/3/4
f 352/3/4 353/3/4 356/3/4
f 356/3/4 354/3/4 357/3/4
f 355/3/4 356/3/4 360/3/4
f 357/3/4 358/3/4 360/3/4
f 356/3/4 357/3/4 360/3/4
f 360/3/4 358/3/4 361/3/4
f 359/3/4 360/3/4 364/3/4
f 361/3/4 362/3/4 364/3/4
f 360/3/4 361/3/4 364/3/4
f 364/3/4 362/3/4 365/3/4
f 363/3/4 364/3/4 368/3/4
f 365/3/4 366/3/4 368/3/4
f 364/3/4 365/3/4 368/3/4
f 368/3/4 366/3/4 369/3/4
f 367/3/4 368/3/4 371/3/4
f 369/3/4 370/3/4 371/3/4
f 368/3/4 369/3/4 371/3/4
f 371/3/4 370/3/4 372/3/4
f 372/3/4 370/3/4 373/3/4
f 373/3/4 370/3/4 374/3/4
f 372/3/4 373/3/4 375/3/4
f 375/3/4 373/3/4 376/3/4
f 376/3/4 373/3/4 377/3/4
f 377/3/4 373/3/4 378/3/4
f 376/3/4 377/3/4 379/3/4
f 379/3/4 377/3/4 380/3/4
f 380/3/4 377/3/4 381/3/4
f 381/3/4 377/3/4 382/3/4
f 380/3/4 381/3/4 383/3/4
f 383/3/4 381/3/4 384/3/4
f 384/3/4 381/3/4 385/3/4
f 385/3/4 381/3/4 386/3/4
f 384/3/4 385/3/4 387/3/4
f 387/3/4 385/3/4 388/3/4
f 388/3/4 385/3/4 389/3/4
f 389/3/4 385/3/4 390/3/4
f 388/3/4 389/3/4 391/3/4
f 391/3/4 389/3/4 392/3/4
f 392/3/4 389/3/4 393/3/4
f 393/3/4 389/3/4 394/3/4
f 392/3/4 393/3/4 395/3/4
f 395/3/4 393/3/4 396/3/4
f 399/3/5 398/3/5 397/3/5
f 400/3/5 398/3/5 399/3/5
f 405/3/5 402/3/5 401/3/5
f 406/3/5 402/3/5 405/3/5
f 407/3/5 404/3/5 403/3/5
f 408/3/5 404/3/5 407/3/5
f 413/3/5 410/3/5 409/3/5
f 414/3/5 410/3/5 413/3/5
f 415/3/5 412/3/5 411/3/5
f 416/3/5 412/3/5 415/3/5
f 421/3/5 418/3/5 417/3/5
f 422/3/5 418/3/5 421/3/5
f 423/3/5 420/3/5 419/3/5
f 424/3/5 420/3/5 423/3/5
f 429/3/5 426/3/5 425/3/5
f 430/3/5 426/3/5 429/3/5
f 431/3/5 428/3/5 427/3/5
f 432/3/5 428/3/5 431/3/5
f 437/3/5 434/3/5 433/3/5
f 438/3/5 434/3/5 437/3/5
f 439/3/5 436/3/5 435/3/5
f 440/3/5 436/3/5 439/3/5
f 445/3/5 442/3/5 441/3/5
f 446/3/5 442/3/5 445/3/5
f 447/3/5 444/3/5 443/3/5
f 448/3/5 444/3/5 447/3/5
f 451/1/5 450/1/5 449/1/5
f 452/1/5 450/1/5 451/1/5
f 456/1/5 454/1/5 453/1/5
f 457/1/5 454/1/5 456/1/5
f 459/1/5 456/1/5 455/1/5
f 460/1/5 456/1/5 459/1/5
f 461/1/5 458/1/5 457/1/5
f 462/1/5 458/1/5 461/1/5
f 467/1/5 464/1/5 463/1/5
f 468/1/5 464/1/5 467/1/5
f 469/1/5 466/1/5 465/1/5
f 470/1/5 466/1/5 469/1/5
f 475/1/5 472/1/5 471/1/5
f 476/1/5 472/1/5 475/1/5
f 477/1/5 474/1/5 473/1/5
f 478/1/5 474/1/5 477/1/5
f 483/1/5 480/1/5 479/1/5
f 484/1/5 480/1/5 483/1/5
f 485/1/5 482/1/5 481/1/5
f 486/1/5 482/1/5 485/1/5
f 489/1/5 488/1/5 487/1/5
f 490/1/5 488/1/5 489/1/5
f 491/1/6 492/1/6 493/1/6
f 493/1/6 492/1/6 494/1/6
f 495/1/6 496/1/6 499/1/6
f 499/1/6 496/1/6 500/1/6
f 497/1/6 498/1/6 501/1/6
f 501/1/6 498/1/6 502/1/6
f 503/1/6 504/1/6 507/1/6
f 507/1/6 504/1/6 508/1/6
f 505/1/6 506/1/6 509/1/6
f 509/1/6 506/1/6 510/1/6
f 511/1/6 512/1/6 515/1/6
f 515/1/6 512/1/6 516/1/6
f 513/1/6 514/1/6 517/1/6
f 517/1/6 514/1/6 518/1/6
f 519/1/6 520/1/6 522/1/6
f 522/1/6 520/1/6 523/1/6
f 521/1/6 522/1/6 525/1/6
f 525/1/6 522/1/6 526/1/6
f 523/1/6 524/1/6 527/1/6
f 527/1/6 524/1/6 528/1/6
f 529/1/6 530/1/6 531/1/6
f 531/1/6 530/1/6 532/1/6
f 533/3/6 534/3/6 537/3/6
f 537/3/6 534/3/6 538/3/6
f 535/3/6 536/3/6 539/3/6
f 539/3/6 536/3/6 540/3/6
f 541/3/6 542/3/6 545/3/6
f 545/3/6 542/3/6 546/3/6
f 543/3/6 544/3/6 547/3/6
f 547/3/6 544/3/6 548/3/6
f 549/3/6 550/3/6 553/3/6
f 553/3/6 550/3/6 554/3/6
f 551/3/6 552/3/6 555/3/6
f 555/3/6 552/3/6 556/3/6
f 557/3/6 558/3/6 561/3/6
f 561/3/6 558/3/6 562/3/6
f 559/3/6 560/3/6 563/3/6
f 563/3/6 560/3/6 564/3/6
f 565/3/6 566/3/6 569/3/6
f 569/3/6 566/3/6 570/3/6
f 567/3/6 568/3/6 571/3/6
f 571/3/6 568/3/6 572/3/6
f 573/3/6 574/3/6 577/3/6
f 577/3/6 574/3/6 578/3/6
f 575/3/6 576/3/6 579/3/6
f 579/3/6 576/3/6 580/3/6
f 581/3/6 582/3/6 583/3/6
f 583/3/6 582/3/6 584/3/6
