# MagicaVoxel @ Ephtracy

# group
o 

# material
mtllib untitled1.mtl
usemtl palette

# normals
vn -1 0 0
vn 1 0 0
vn 0 0 1
vn 0 0 -1
vn 0 -1 0
vn 0 1 0

# texcoords
vt 0.841797 0.5
vt 0.986328 0.5

# verts
v -12.8 0 9.9
v -12.8 0 -10
v -12.8 0.1 9.9
v -12.8 0.1 -10
v 12.8 0 9.9
v 12.8 0 -10
v 12.8 0.1 9.9
v 12.8 0.1 -10
v -12.8 0 9.9
v -12.8 0.1 9.9
v -2 0 9.9
v -2 0.1 9.9
v 2 0 9.9
v 2 0.1 9.9
v 12.8 0 9.9
v 12.8 0.1 9.9
v -12.8 0 -10
v -12.8 0.1 -10
v 12.8 0 -10
v 12.8 0.1 -10
v -12.8 0 9.9
v -2 0 9.9
v 2 0 9.9
v 12.8 0 9.9
v -2 0 8.8
v -1.5 0 8.8
v 1.5 0 8.8
v 2 0 8.8
v -1.5 0 8.4
v -1 0 8.4
v 1 0 8.4
v 1.5 0 8.4
v -1 0 7.9
v 1 0 7.9
v -9.6 0 5.8
v -8.7 0 5.8
v -5 0 5.8
v -4.5 0 5.8
v 4.5 0 5.8
v 5 0 5.8
v 8.7 0 5.8
v 9.6 0 5.8
v -5 0 -4.5
v -4.5 0 -4.5
v 4.5 0 -4.5
v 5 0 -4.5
v -8.7 0 -5.6
v 8.7 0 -5.6
v -9.6 0 -6.5
v 9.6 0 -6.5
v -12.8 0 -10
v 12.8 0 -10
v -12.8 0.1 9.9
v -2 0.1 9.9
v 2 0.1 9.9
v 12.8 0.1 9.9
v -2 0.1 8.8
v -1.5 0.1 8.8
v 1.5 0.1 8.8
v 2 0.1 8.8
v -1.5 0.1 8.4
v -1 0.1 8.4
v 1 0.1 8.4
v 1.5 0.1 8.4
v -1 0.1 7.9
v 1 0.1 7.9
v -9.6 0.1 5.8
v -8.7 0.1 5.8
v -5 0.1 5.8
v -4.5 0.1 5.8
v 4.5 0.1 5.8
v 5 0.1 5.8
v 8.7 0.1 5.8
v 9.6 0.1 5.8
v -5 0.1 -4.5
v -4.5 0.1 -4.5
v 4.5 0.1 -4.5
v 5 0.1 -4.5
v -8.7 0.1 -5.6
v 8.7 0.1 -5.6
v -9.6 0.1 -6.5
v 9.6 0.1 -6.5
v -12.8 0.1 -10
v 12.8 0.1 -10

# faces
f 3/2/1 2/2/1 1/2/1
f 4/2/1 2/2/1 3/2/1
f 5/2/2 6/2/2 7/2/2
f 7/2/2 6/2/2 8/2/2
f 11/2/3 10/2/3 9/2/3
f 12/2/3 10/2/3 11/2/3
f 13/1/3 12/1/3 11/1/3
f 14/1/3 12/1/3 13/1/3
f 15/2/3 14/2/3 13/2/3
f 16/2/3 14/2/3 15/2/3
f 17/2/4 18/2/4 19/2/4
f 19/2/4 18/2/4 20/2/4
f 25/2/5 22/2/5 21/2/5
f 25/1/5 23/1/5 22/1/5
f 26/1/5 23/1/5 25/1/5
f 27/1/5 23/1/5 26/1/5
f 28/2/5 24/2/5 23/2/5
f 28/1/5 23/1/5 27/1/5
f 29/1/5 27/1/5 26/1/5
f 29/2/5 26/2/5 25/2/5
f 30/1/5 27/1/5 29/1/5
f 31/1/5 27/1/5 30/1/5
f 32/2/5 28/2/5 27/2/5
f 32/1/5 27/1/5 31/1/5
f 33/1/5 31/1/5 30/1/5
f 33/2/5 30/2/5 29/2/5
f 34/2/5 32/2/5 31/2/5
f 34/1/5 31/1/5 33/1/5
f 35/2/5 25/2/5 21/2/5
f 35/2/5 29/2/5 25/2/5
f 35/2/5 34/2/5 33/2/5
f 35/2/5 33/2/5 29/2/5
f 36/2/5 34/2/5 35/2/5
f 37/2/5 34/2/5 36/2/5
f 38/2/5 34/2/5 37/2/5
f 39/2/5 24/2/5 28/2/5
f 39/2/5 34/2/5 38/2/5
f 39/2/5 32/2/5 34/2/5
f 39/2/5 28/2/5 32/2/5
f 40/2/5 24/2/5 39/2/5
f 41/2/5 24/2/5 40/2/5
f 42/2/5 24/2/5 41/2/5
f 43/1/5 38/1/5 37/1/5
f 43/2/5 37/2/5 36/2/5
f 44/2/5 39/2/5 38/2/5
f 44/1/5 38/1/5 43/1/5
f 45/1/5 40/1/5 39/1/5
f 45/2/5 39/2/5 44/2/5
f 46/2/5 41/2/5 40/2/5
f 46/1/5 40/1/5 45/1/5
f 47/1/5 36/1/5 35/1/5
f 47/2/5 43/2/5 36/2/5
f 47/2/5 46/2/5 45/2/5
f 47/2/5 45/2/5 44/2/5
f 47/2/5 44/2/5 43/2/5
f 48/1/5 42/1/5 41/1/5
f 48/2/5 46/2/5 47/2/5
f 48/2/5 41/2/5 46/2/5
f 49/1/5 47/1/5 35/1/5
f 49/2/5 35/2/5 21/2/5
f 49/1/5 48/1/5 47/1/5
f 50/2/5 24/2/5 42/2/5
f 50/1/5 48/1/5 49/1/5
f 50/1/5 42/1/5 48/1/5
f 51/2/5 49/2/5 21/2/5
f 51/2/5 50/2/5 49/2/5
f 52/2/5 24/2/5 50/2/5
f 52/2/5 50/2/5 51/2/5
f 53/2/6 54/2/6 57/2/6
f 54/1/6 55/1/6 57/1/6
f 57/1/6 55/1/6 58/1/6
f 58/1/6 55/1/6 59/1/6
f 55/2/6 56/2/6 60/2/6
f 59/1/6 55/1/6 60/1/6
f 58/1/6 59/1/6 61/1/6
f 57/2/6 58/2/6 61/2/6
f 61/1/6 59/1/6 62/1/6
f 62/1/6 59/1/6 63/1/6
f 59/2/6 60/2/6 64/2/6
f 63/1/6 59/1/6 64/1/6
f 62/1/6 63/1/6 65/1/6
f 61/2/6 62/2/6 65/2/6
f 63/2/6 64/2/6 66/2/6
f 65/1/6 63/1/6 66/1/6
f 53/2/6 57/2/6 67/2/6
f 57/2/6 61/2/6 67/2/6
f 65/2/6 66/2/6 67/2/6
f 61/2/6 65/2/6 67/2/6
f 67/2/6 66/2/6 68/2/6
f 68/2/6 66/2/6 69/2/6
f 69/2/6 66/2/6 70/2/6
f 60/2/6 56/2/6 71/2/6
f 70/2/6 66/2/6 71/2/6
f 66/2/6 64/2/6 71/2/6
f 64/2/6 60/2/6 71/2/6
f 71/2/6 56/2/6 72/2/6
f 72/2/6 56/2/6 73/2/6
f 73/2/6 56/2/6 74/2/6
f 69/1/6 70/1/6 75/1/6
f 68/2/6 69/2/6 75/2/6
f 70/2/6 71/2/6 76/2/6
f 75/1/6 70/1/6 76/1/6
f 71/1/6 72/1/6 77/1/6
f 76/2/6 71/2/6 77/2/6
f 72/2/6 73/2/6 78/2/6
f 77/1/6 72/1/6 78/1/6
f 67/1/6 68/1/6 79/1/6
f 68/2/6 75/2/6 79/2/6
f 77/2/6 78/2/6 79/2/6
f 76/2/6 77/2/6 79/2/6
f 75/2/6 76/2/6 79/2/6
f 73/1/6 74/1/6 80/1/6
f 79/2/6 78/2/6 80/2/6
f 78/2/6 73/2/6 80/2/6
f 67/1/6 79/1/6 81/1/6
f 53/2/6 67/2/6 81/2/6
f 79/1/6 80/1/6 81/1/6
f 74/2/6 56/2/6 82/2/6
f 81/1/6 80/1/6 82/1/6
f 80/1/6 74/1/6 82/1/6
f 53/2/6 81/2/6 83/2/6
f 81/2/6 82/2/6 83/2/6
f 82/2/6 56/2/6 84/2/6
f 83/2/6 82/2/6 84/2/6
