# MagicaVoxel @ Ephtracy

# group
o 

# material
mtllib NeonLightTankEnemy-1.mtl
usemtl palette

# normals
vn -1 0 0
vn 1 0 0
vn 0 0 1
vn 0 0 -1
vn 0 -1 0
vn 0 1 0

# texcoords
vt 0.841797 0.5
vt 0.955078 0.5
vt 0.990234 0.5

# verts
v -7.3 1 0.2
v -7.3 1 0.1
v -7.3 1.1 0.3
v -7.3 1.1 0.2
v -7.3 1.1 0.1
v -7.3 1.1 0
v -7.3 1.2 0.3
v -7.3 1.2 0.2
v -7.3 1.2 0.1
v -7.3 1.2 0
v -7.3 1.3 0.2
v -7.3 1.3 0.1
v -6.2 0.9 0.2
v -6.2 0.9 0.1
v -6.2 1 0.3
v -6.2 1 0.2
v -6.2 1 0.1
v -6.2 1 0
v -6.2 1.1 0.4
v -6.2 1.1 0.3
v -6.2 1.1 0.2
v -6.2 1.1 0.1
v -6.2 1.1 0
v -6.2 1.1 -0.1
v -6.2 1.2 0.4
v -6.2 1.2 0.3
v -6.2 1.2 0.2
v -6.2 1.2 0.1
v -6.2 1.2 0
v -6.2 1.2 -0.1
v -6.2 1.3 0.3
v -6.2 1.3 0.2
v -6.2 1.3 0.1
v -6.2 1.3 0
v -6.2 1.4 0.2
v -6.2 1.4 0.1
v -5.4 0.9 0.3
v -5.4 0.9 0.2
v -5.4 0.9 0.1
v -5.4 0.9 0
v -5.4 1 0.4
v -5.4 1 0.3
v -5.4 1 0.2
v -5.4 1 0.1
v -5.4 1 0
v -5.4 1 -0.1
v -5.4 1.1 0.4
v -5.4 1.1 0.3
v -5.4 1.1 0
v -5.4 1.1 -0.1
v -5.4 1.2 0.4
v -5.4 1.2 0.3
v -5.4 1.2 0
v -5.4 1.2 -0.1
v -5.4 1.3 0.4
v -5.4 1.3 0.3
v -5.4 1.3 0.2
v -5.4 1.3 0.1
v -5.4 1.3 0
v -5.4 1.3 -0.1
v -5.4 1.4 0.3
v -5.4 1.4 0.2
v -5.4 1.4 0.1
v -5.4 1.4 0
v -4.3 0.9 0.3
v -4.3 0.9 0.2
v -4.3 0.9 0.1
v -4.3 0.9 0
v -4.3 1 0.4
v -4.3 1 0.3
v -4.3 1 0.2
v -4.3 1 0.1
v -4.3 1 0
v -4.3 1 -0.1
v -4.3 1.1 0.4
v -4.3 1.1 0.3
v -4.3 1.1 0
v -4.3 1.1 -0.1
v -4.3 1.2 0.4
v -4.3 1.2 0.3
v -4.3 1.2 0
v -4.3 1.2 -0.1
v -4.3 1.3 0.4
v -4.3 1.3 0.3
v -4.3 1.3 0.2
v -4.3 1.3 0.1
v -4.3 1.3 0
v -4.3 1.3 -0.1
v -4.3 1.4 0.3
v -4.3 1.4 0.2
v -4.3 1.4 0.1
v -4.3 1.4 0
v -6.2 1.1 0.4
v -6.2 1.2 0.4
v -5.4 1 0.4
v -5.4 1.1 0.4
v -5.4 1.2 0.4
v -5.4 1.3 0.4
v -4.3 1 0.4
v -4.3 1.1 0.4
v -4.3 1.2 0.4
v -4.3 1.3 0.4
v -7.3 1.1 0.3
v -7.3 1.2 0.3
v -6.2 1 0.3
v -6.2 1.1 0.3
v -6.2 1.2 0.3
v -6.2 1.3 0.3
v -5.4 0.9 0.3
v -5.4 1 0.3
v -5.4 1.1 0.3
v -5.4 1.2 0.3
v -5.4 1.3 0.3
v -5.4 1.4 0.3
v -4.3 0.9 0.3
v -4.3 1 0.3
v -4.3 1.3 0.3
v -4.3 1.4 0.3
v -7.3 1 0.2
v -7.3 1.1 0.2
v -7.3 1.2 0.2
v -7.3 1.3 0.2
v -6.2 0.9 0.2
v -6.2 1 0.2
v -6.2 1.1 0.2
v -6.2 1.2 0.2
v -6.2 1.3 0.2
v -6.2 1.4 0.2
v -5.4 0.9 0.2
v -5.4 1 0.2
v -5.4 1.3 0.2
v -5.4 1.4 0.2
v -7.3 1 0.1
v -7.3 1.1 0.1
v -7.3 1.2 0.1
v -7.3 1.3 0.1
v -6.2 0.9 0.1
v -6.2 1 0.1
v -6.2 1.1 0.1
v -6.2 1.2 0.1
v -6.2 1.3 0.1
v -6.2 1.4 0.1
v -6.1 1 0.1
v -5.4 0.9 0.1
v -5.4 1 0.1
v -5.4 1.3 0.1
v -5.4 1.4 0.1
v -7.3 1.1 0
v -7.3 1.2 0
v -6.2 1 0
v -6.2 1.1 0
v -6.2 1.2 0
v -6.2 1.3 0
v -6.1 1 0
v -6.1 1.1 0
v -5.4 0.9 0
v -5.4 1 0
v -5.4 1.1 0
v -5.4 1.2 0
v -5.4 1.3 0
v -5.4 1.4 0
v -4.3 0.9 0
v -4.3 1 0
v -4.3 1.3 0
v -4.3 1.4 0
v -6.2 1.1 -0.1
v -6.2 1.2 -0.1
v -5.4 1 -0.1
v -5.4 1.1 -0.1
v -5.4 1.2 -0.1
v -5.4 1.3 -0.1
v -4.3 1 -0.1
v -4.3 1.1 -0.1
v -4.3 1.2 -0.1
v -4.3 1.3 -0.1
v -5.4 0.9 0.3
v -4.3 0.9 0.3
v -6.2 0.9 0.2
v -5.4 0.9 0.2
v -4.3 0.9 0.2
v -6.2 0.9 0.1
v -5.4 0.9 0.1
v -4.3 0.9 0.1
v -5.4 0.9 0
v -4.3 0.9 0
v -5.4 1 0.4
v -4.3 1 0.4
v -6.2 1 0.3
v -5.4 1 0.3
v -4.3 1 0.3
v -7.3 1 0.2
v -6.2 1 0.2
v -5.4 1 0.2
v -7.3 1 0.1
v -6.2 1 0.1
v -6.1 1 0.1
v -5.4 1 0.1
v -6.2 1 0
v -6.1 1 0
v -5.4 1 0
v -4.3 1 0
v -5.4 1 -0.1
v -4.3 1 -0.1
v -6.2 1.1 0.4
v -5.4 1.1 0.4
v -7.3 1.1 0.3
v -6.2 1.1 0.3
v -5.4 1.1 0.3
v -7.3 1.1 0.2
v -6.2 1.1 0.2
v -7.3 1.1 0.1
v -6.2 1.1 0.1
v -7.3 1.1 0
v -6.2 1.1 0
v -6.1 1.1 0
v -5.4 1.1 0
v -6.2 1.1 -0.1
v -5.4 1.1 -0.1
v -6.2 1.2 0.4
v -5.4 1.2 0.4
v -7.3 1.2 0.3
v -6.2 1.2 0.3
v -5.4 1.2 0.3
v -7.3 1.2 0.2
v -6.2 1.2 0.2
v -7.3 1.2 0.1
v -6.2 1.2 0.1
v -7.3 1.2 0
v -6.2 1.2 0
v -5.4 1.2 0
v -6.2 1.2 -0.1
v -5.4 1.2 -0.1
v -5.4 1.3 0.4
v -4.3 1.3 0.4
v -6.2 1.3 0.3
v -5.4 1.3 0.3
v -4.3 1.3 0.3
v -7.3 1.3 0.2
v -6.2 1.3 0.2
v -5.4 1.3 0.2
v -7.3 1.3 0.1
v -6.2 1.3 0.1
v -5.4 1.3 0.1
v -6.2 1.3 0
v -5.4 1.3 0
v -4.3 1.3 0
v -5.4 1.3 -0.1
v -4.3 1.3 -0.1
v -5.4 1.4 0.3
v -4.3 1.4 0.3
v -6.2 1.4 0.2
v -5.4 1.4 0.2
v -4.3 1.4 0.2
v -6.2 1.4 0.1
v -5.4 1.4 0.1
v -4.3 1.4 0.1
v -5.4 1.4 0
v -4.3 1.4 0

# faces
f 4/1/1 2/1/1 1/1/1
f 5/1/1 2/1/1 4/1/1
f 7/1/1 4/1/1 3/1/1
f 8/3/1 5/3/1 4/3/1
f 8/1/1 4/1/1 7/1/1
f 9/1/1 6/1/1 5/1/1
f 9/3/1 5/3/1 8/3/1
f 10/1/1 6/1/1 9/1/1
f 11/1/1 9/1/1 8/1/1
f 12/1/1 9/1/1 11/1/1
f 16/1/1 14/1/1 13/1/1
f 17/1/1 14/1/1 16/1/1
f 20/2/1 16/2/1 15/2/1
f 21/2/1 16/2/1 20/2/1
f 22/1/1 18/1/1 17/1/1
f 23/1/1 18/1/1 22/1/1
f 25/1/1 20/1/1 19/1/1
f 26/1/1 20/1/1 25/1/1
f 29/1/1 24/1/1 23/1/1
f 30/1/1 24/1/1 29/1/1
f 31/2/1 27/2/1 26/2/1
f 32/2/1 27/2/1 31/2/1
f 33/2/1 29/2/1 28/2/1
f 34/2/1 29/2/1 33/2/1
f 35/1/1 33/1/1 32/1/1
f 36/1/1 33/1/1 35/1/1
f 42/2/1 38/2/1 37/2/1
f 43/2/1 38/2/1 42/2/1
f 44/2/1 40/2/1 39/2/1
f 45/2/1 40/2/1 44/2/1
f 47/2/1 42/2/1 41/2/1
f 48/2/1 42/2/1 47/2/1
f 49/2/1 46/2/1 45/2/1
f 50/2/1 46/2/1 49/2/1
f 55/2/1 52/2/1 51/2/1
f 56/2/1 52/2/1 55/2/1
f 59/2/1 54/2/1 53/2/1
f 60/2/1 54/2/1 59/2/1
f 61/2/1 57/2/1 56/2/1
f 62/2/1 57/2/1 61/2/1
f 63/2/1 59/2/1 58/2/1
f 64/2/1 59/2/1 63/2/1
f 65/2/2 66/2/2 70/2/2
f 66/1/2 67/1/2 71/1/2
f 70/2/2 66/2/2 71/2/2
f 67/2/2 68/2/2 72/2/2
f 71/1/2 67/1/2 72/1/2
f 72/2/2 68/2/2 73/2/2
f 70/2/2 71/2/2 75/2/2
f 73/2/2 74/2/2 75/2/2
f 72/2/2 73/2/2 75/2/2
f 71/2/2 72/2/2 75/2/2
f 69/2/2 70/2/2 75/2/2
f 75/2/2 74/2/2 76/2/2
f 76/2/2 74/2/2 77/2/2
f 77/2/2 74/2/2 78/2/2
f 75/1/2 76/1/2 79/1/2
f 76/2/2 77/2/2 80/2/2
f 79/1/2 76/1/2 80/1/2
f 77/1/2 78/1/2 81/1/2
f 80/2/2 77/2/2 81/2/2
f 81/1/2 78/1/2 82/1/2
f 79/2/2 80/2/2 83/2/2
f 80/2/2 81/2/2 83/2/2
f 81/2/2 82/2/2 83/2/2
f 83/2/2 82/2/2 84/2/2
f 84/2/2 82/2/2 85/2/2
f 85/2/2 82/2/2 86/2/2
f 86/2/2 82/2/2 87/2/2
f 87/2/2 82/2/2 88/2/2
f 84/2/2 85/2/2 89/2/2
f 85/1/2 86/1/2 90/1/2
f 89/2/2 85/2/2 90/2/2
f 86/2/2 87/2/2 91/2/2
f 90/1/2 86/1/2 91/1/2
f 91/2/2 87/2/2 92/2/2
f 96/1/3 94/1/3 93/1/3
f 97/1/3 94/1/3 96/1/3
f 99/2/3 96/2/3 95/2/3
f 100/1/3 97/1/3 96/1/3
f 100/2/3 96/2/3 99/2/3
f 101/2/3 98/2/3 97/2/3
f 101/1/3 97/1/3 100/1/3
f 102/2/3 98/2/3 101/2/3
f 106/1/3 104/1/3 103/1/3
f 107/1/3 104/1/3 106/1/3
f 110/2/3 106/2/3 105/2/3
f 111/2/3 106/2/3 110/2/3
f 112/2/3 108/2/3 107/2/3
f 113/2/3 108/2/3 112/2/3
f 115/2/3 110/2/3 109/2/3
f 116/2/3 110/2/3 115/2/3
f 117/2/3 114/2/3 113/2/3
f 118/2/3 114/2/3 117/2/3
f 124/1/3 120/1/3 119/1/3
f 125/1/3 120/1/3 124/1/3
f 126/1/3 122/1/3 121/1/3
f 127/1/3 122/1/3 126/1/3
f 129/1/3 124/1/3 123/1/3
f 130/1/3 124/1/3 129/1/3
f 131/1/3 128/1/3 127/1/3
f 132/1/3 128/1/3 131/1/3
f 133/1/4 134/1/4 138/1/4
f 138/1/4 134/1/4 139/1/4
f 135/1/4 136/1/4 140/1/4
f 140/1/4 136/1/4 141/1/4
f 137/1/4 138/1/4 143/1/4
f 137/1/4 143/1/4 144/1/4
f 144/1/4 143/1/4 145/1/4
f 141/1/4 142/1/4 146/1/4
f 146/1/4 142/1/4 147/1/4
f 148/1/4 149/1/4 151/1/4
f 151/1/4 149/1/4 152/1/4
f 150/1/4 151/1/4 154/1/4
f 154/1/4 151/1/4 155/1/4
f 154/2/4 155/2/4 157/2/4
f 157/2/4 155/2/4 158/2/4
f 152/2/4 153/2/4 159/2/4
f 159/2/4 153/2/4 160/2/4
f 156/2/4 157/2/4 162/2/4
f 162/2/4 157/2/4 163/2/4
f 160/2/4 161/2/4 164/2/4
f 164/2/4 161/2/4 165/2/4
f 166/1/4 167/1/4 169/1/4
f 169/1/4 167/1/4 170/1/4
f 168/2/4 169/2/4 172/2/4
f 169/1/4 170/1/4 173/1/4
f 172/2/4 169/2/4 173/2/4
f 170/2/4 171/2/4 174/2/4
f 173/1/4 170/1/4 174/1/4
f 174/2/4 171/2/4 175/2/4
f 179/2/5 177/2/5 176/2/5
f 180/2/5 177/2/5 179/2/5
f 181/1/5 179/1/5 178/1/5
f 181/1/5 180/1/5 179/1/5
f 182/1/5 180/1/5 181/1/5
f 183/1/5 180/1/5 182/1/5
f 184/2/5 183/2/5 182/2/5
f 185/2/5 183/2/5 184/2/5
f 189/2/5 187/2/5 186/2/5
f 190/2/5 187/2/5 189/2/5
f 192/2/5 189/2/5 188/2/5
f 193/2/5 189/2/5 192/2/5
f 194/1/5 192/1/5 191/1/5
f 195/1/5 192/1/5 194/1/5
f 198/1/5 196/1/5 195/1/5
f 199/2/5 197/2/5 196/2/5
f 199/1/5 196/1/5 198/1/5
f 200/2/5 197/2/5 199/2/5
f 202/2/5 201/2/5 200/2/5
f 203/2/5 201/2/5 202/2/5
f 207/1/5 205/1/5 204/1/5
f 208/1/5 205/1/5 207/1/5
f 209/1/5 207/1/5 206/1/5
f 210/1/5 207/1/5 209/1/5
f 213/1/5 212/1/5 211/1/5
f 214/1/5 212/1/5 213/1/5
f 217/1/5 216/1/5 215/1/5
f 217/1/5 215/1/5 214/1/5
f 218/1/5 216/1/5 217/1/5
f 219/1/6 220/1/6 222/1/6
f 222/1/6 220/1/6 223/1/6
f 221/1/6 222/1/6 224/1/6
f 224/1/6 222/1/6 225/1/6
f 226/1/6 227/1/6 228/1/6
f 228/1/6 227/1/6 229/1/6
f 229/1/6 230/1/6 231/1/6
f 231/1/6 230/1/6 232/1/6
f 233/2/6 234/2/6 236/2/6
f 236/2/6 234/2/6 237/2/6
f 235/2/6 236/2/6 239/2/6
f 239/2/6 236/2/6 240/2/6
f 238/1/6 239/1/6 241/1/6
f 241/1/6 239/1/6 242/1/6
f 242/2/6 243/2/6 244/2/6
f 244/2/6 243/2/6 245/2/6
f 245/2/6 246/2/6 247/2/6
f 247/2/6 246/2/6 248/2/6
f 249/2/6 250/2/6 252/2/6
f 252/2/6 250/2/6 253/2/6
f 251/1/6 252/1/6 254/1/6
f 252/1/6 253/1/6 254/1/6
f 254/1/6 253/1/6 255/1/6
f 255/1/6 253/1/6 256/1/6
f 255/2/6 256/2/6 257/2/6
f 257/2/6 256/2/6 258/2/6
